<svg width="13" height="12" viewBox="0 0 13 12" fill="none" xmlns="http://www.w3.org/2000/svg">
<path d="M11.4827 4.59547C11.0745 4.59547 10.7154 4.76191 10.451 5.02122C9.47903 4.35965 8.16843 3.9339 6.71623 3.88851L7.47058 0.546263L9.87266 1.07635C9.87266 1.65443 10.3519 2.1266 10.9399 2.1266C11.5392 2.1266 12.0211 1.64191 12.0211 1.0633C12.0211 0.484692 11.5424 0 10.9404 0C10.5209 0 10.1591 0.248868 9.97872 0.589043L7.32573 0.0109536C7.19217 -0.0239974 7.06135 0.069914 7.02581 0.201393L6.19764 3.88591C4.75674 3.94486 3.46013 4.37008 2.48497 5.03216C2.22059 4.76191 1.84744 4.59547 1.43929 4.59547C-0.074868 4.59547 -0.570787 6.5932 0.815745 7.27615C0.766748 7.48749 0.744669 7.71284 0.744669 7.93771C0.744669 10.1817 3.31582 12 6.4728 12C9.64327 12 12.2144 10.1817 12.2144 7.93771C12.2144 7.71284 12.1902 7.47703 12.1304 7.26521C13.4889 6.57967 12.9888 4.59652 11.4827 4.59547ZM3.0159 7.41807C3.0159 6.82901 3.49513 6.3548 4.09713 6.3548C4.68512 6.3548 5.16489 6.82592 5.16489 7.41807C5.16489 7.99668 4.68567 8.46835 4.09713 8.46835C3.49782 8.47095 3.0159 7.99668 3.0159 7.41807ZM8.85226 9.92137C7.86097 10.896 5.06369 10.896 4.07182 9.92137C3.96251 9.82748 3.96251 9.66158 4.07182 9.55458C4.16713 9.46069 4.3362 9.46069 4.43151 9.55458C5.18858 10.3179 7.69997 10.3309 8.48986 9.55458C8.5852 9.46069 8.7543 9.46069 8.84957 9.55458C8.96106 9.66206 8.96106 9.82796 8.85226 9.92137ZM8.83018 8.4704C8.24219 8.4704 7.76295 7.99927 7.76295 7.42121C7.76295 6.83215 8.24219 6.35788 8.83018 6.35788C9.42952 6.35788 9.91145 6.82901 9.91145 7.42121C9.9087 7.99668 9.42952 8.4704 8.83018 8.4704Z" fill="white"/>
</svg>
