<svg width="99" height="26" viewBox="0 0 99 26" fill="none" xmlns="http://www.w3.org/2000/svg">
<mask id="mask0_47_2913" style="mask-type:luminance" maskUnits="userSpaceOnUse" x="0" y="0" width="99" height="26">
<path d="M98.5824 0.5H0.582397V25.5H98.5824V0.5Z" fill="white"/>
</mask>
<g mask="url(#mask0_47_2913)">
<path d="M17.3621 5.53412C17.3621 5.53412 18.2171 5.39854 18.989 5.76368L10.4227 0.802704L8.83722 1.68286L17.3633 6.83412C17.3633 6.04675 17.3621 5.53412 17.3621 5.53412Z" fill="#4F4F4F"/>
<path d="M8.81396 0.581399C8.81396 0.581399 12.4675 0.00335217 11.4809 4.46121C11.1157 6.59143 9.56109 8.45995 8.82348 8.85842C8.82348 6.34166 8.81396 0.581399 8.81396 0.581399Z" fill="#4F4F4F"/>
<path d="M17.362 5.53413C17.362 5.53413 21.0155 4.95608 20.0289 9.41393C19.6637 11.5454 18.1091 13.4127 17.3715 13.8112C17.3715 11.2944 17.362 5.53413 17.362 5.53413Z" fill="#4F4F4F"/>
<path opacity="0.4" d="M17.362 5.53413C17.362 5.53413 21.0155 4.95608 20.0289 9.41393C19.6637 11.5454 18.1091 13.4127 17.3715 13.8112C17.3715 11.2944 17.362 5.53413 17.362 5.53413Z" fill="#333333"/>
<path d="M7.90515 9.41399L7.89569 1.13699L16.4466 6.08845L16.4561 14.3655L7.90515 9.41399Z" fill="url(#paint0_linear_47_2913)"/>
<path d="M7.90477 9.31625L0.814758 13.4209L9.36571 18.3735L16.4558 14.2677L7.90477 9.31625Z" fill="black"/>
<path d="M7.94863 10.3344L2.66577 13.3936L9.32296 17.2484L14.6058 14.1893L7.94863 10.3344Z" fill="white"/>
<path d="M0.824245 20.606L0.814758 13.4209L9.36571 18.3735L9.37523 25.5575L0.824245 20.606Z" fill="#4F4F4F"/>
<path d="M16.4384 21.4257L9.34839 25.5315L9.36618 18.3737L16.4562 14.2679L16.4384 21.4257Z" fill="#4F4F4F"/>
<path opacity="0.4" d="M16.4384 21.4257L9.34839 25.5315L9.36618 18.3737L16.4562 14.2679L16.4384 21.4257Z" fill="#333333"/>
<path d="M17.3731 13.811L17.3636 5.53403L16.447 6.08829L16.4565 14.3653L17.3731 13.811Z" fill="#4F4F4F"/>
<path opacity="0.3" d="M17.3731 13.811L17.3636 5.53403L16.447 6.08829L16.4565 14.3653L17.3731 13.811Z" fill="#4F4F4F"/>
<path d="M8.8123 0.581299L7.89569 1.13675L16.4466 6.0882L17.3633 5.53395L8.8123 0.581299Z" fill="#4F4F4F"/>
<path d="M36.3987 13.0134C36.3987 13.8248 36.2594 14.567 35.9794 15.2388C35.6993 15.9104 35.3124 16.4857 34.8159 16.9634C34.3194 17.4424 33.7295 17.8115 33.045 18.072C32.3604 18.3326 31.6191 18.4628 30.8196 18.4628C30.02 18.4628 29.28 18.3326 28.6009 18.072C27.9218 17.8115 27.3333 17.441 26.8367 16.9634C26.3403 16.4844 25.952 15.9104 25.6733 15.2388C25.3933 14.567 25.2539 13.8248 25.2539 13.0134C25.2539 12.1924 25.3933 11.4502 25.6733 10.788C25.9533 10.1258 26.3403 9.56267 26.8367 9.09864C27.3333 8.63455 27.9204 8.27767 28.6009 8.02529C29.28 7.77426 30.02 7.64807 30.8196 7.64807C31.6191 7.64807 32.3618 7.77426 33.045 8.02529C33.7295 8.27631 34.3194 8.63455 34.8159 9.09864C35.3124 9.56267 35.6993 10.1258 35.9794 10.788C36.258 11.4502 36.3987 12.1924 36.3987 13.0134ZM33.7539 13.0134C33.7539 12.5683 33.6822 12.1531 33.5375 11.7664C33.3927 11.3796 33.1925 11.0485 32.9381 10.7731C32.6824 10.4976 32.374 10.2805 32.0128 10.1204C31.6515 9.96029 31.2538 9.88154 30.8209 9.88154C30.3867 9.88154 29.9916 9.96159 29.6358 10.1204C29.2786 10.2805 28.9702 10.4976 28.7105 10.7731C28.4507 11.0485 28.2505 11.3796 28.1111 11.7664C27.9718 12.1531 27.9014 12.5683 27.9014 13.0134C27.9014 13.4774 27.9732 13.9049 28.1179 14.297C28.2627 14.6892 28.4629 15.0243 28.7172 15.3052C28.9729 15.5861 29.2786 15.8059 29.6345 15.9647C29.9903 16.1248 30.3867 16.2035 30.8196 16.2035C31.2538 16.2035 31.6475 16.1235 32.0046 15.9647C32.3604 15.8059 32.6689 15.5861 32.93 15.3052C33.1898 15.0243 33.3927 14.6892 33.5375 14.297C33.6808 13.9049 33.7539 13.4774 33.7539 13.0134Z" fill="white"/>
<path d="M45.9097 14.5506C45.9097 15.0527 45.8326 15.5371 45.6784 15.9998C45.5241 16.4639 45.2996 16.8723 45.006 17.2252C44.7124 17.578 44.3526 17.8602 43.9292 18.0733C43.5044 18.2863 43.0228 18.3921 42.4843 18.3921C42.0405 18.3921 41.6212 18.3026 41.2261 18.1235C40.8311 17.9443 40.5227 17.7001 40.3008 17.3907H40.2724V21.6677H37.9022V10.9697H40.1574V11.8544H40.2007C40.4226 11.5641 40.7283 11.3103 41.1179 11.0932C41.5075 10.8761 41.9689 10.7675 42.4978 10.7675C43.0187 10.7675 43.4908 10.8693 43.9143 11.0715C44.3377 11.275 44.6975 11.5505 44.9911 11.8979C45.2847 12.2452 45.512 12.6496 45.6703 13.1083C45.8299 13.5669 45.9097 14.0472 45.9097 14.5506ZM43.6112 14.5506C43.6112 14.3186 43.5747 14.092 43.503 13.8694C43.4313 13.6469 43.3244 13.4516 43.185 13.2819C43.0458 13.1123 42.8699 12.9752 42.6575 12.868C42.4451 12.7622 42.2002 12.7093 41.9202 12.7093C41.6496 12.7093 41.4088 12.7622 41.1977 12.868C40.9853 12.9752 40.8054 13.115 40.6552 13.2887C40.5051 13.4624 40.3901 13.6605 40.3089 13.883C40.2264 14.1056 40.1858 14.3322 40.1858 14.5642C40.1858 14.7963 40.2264 15.0229 40.3089 15.2454C40.3901 15.4679 40.5064 15.666 40.6552 15.8397C40.804 16.0134 40.9853 16.1546 41.1977 16.2604C41.4101 16.3662 41.6509 16.4192 41.9202 16.4192C42.2002 16.4192 42.4451 16.3662 42.6575 16.2604C42.8699 16.1546 43.0458 16.0134 43.185 15.8397C43.3244 15.666 43.4313 15.4652 43.503 15.2386C43.576 15.012 43.6112 14.7827 43.6112 14.5506Z" fill="white"/>
<path d="M54.5395 14.6661C54.5395 14.7624 54.5395 14.8602 54.5395 14.9565C54.5395 15.0528 54.5341 15.1451 54.5247 15.2319H49.3067C49.3256 15.4355 49.3865 15.6187 49.488 15.7828C49.5894 15.947 49.7193 16.0895 49.8776 16.2103C50.0372 16.3311 50.2145 16.426 50.412 16.4926C50.6095 16.5604 50.8138 16.5943 51.0262 16.5943C51.4023 16.5943 51.7202 16.5237 51.98 16.384C52.2397 16.2442 52.4521 16.0624 52.6158 15.8398L54.2636 16.8834C53.9267 17.3759 53.4803 17.7559 52.9269 18.0218C52.3722 18.2878 51.7296 18.4207 50.9977 18.4207C50.458 18.4207 49.948 18.3366 49.465 18.167C48.9834 17.9974 48.5613 17.7518 48.2 17.4274C47.8389 17.1032 47.5547 16.7056 47.3477 16.232C47.1407 15.7585 47.0366 15.217 47.0366 14.6078C47.0366 14.0189 47.1381 13.4842 47.3396 13.0052C47.5425 12.5262 47.8172 12.1205 48.1635 11.7881C48.5099 11.4543 48.9197 11.1964 49.3919 11.0119C49.8641 10.8287 50.3754 10.7364 50.9247 10.7364C51.455 10.7364 51.9407 10.826 52.3844 11.0051C52.8282 11.1842 53.2083 11.442 53.5263 11.7812C53.8442 12.1191 54.0917 12.5303 54.2703 13.0134C54.4502 13.4964 54.5395 14.0473 54.5395 14.6661ZM52.356 13.7529C52.356 13.3757 52.2383 13.0527 52.0016 12.7813C51.7648 12.5113 51.4117 12.3756 50.9396 12.3756C50.7082 12.3756 50.4959 12.4122 50.3038 12.4841C50.1103 12.5561 49.9425 12.6565 49.7978 12.7813C49.653 12.9075 49.5381 13.0541 49.4514 13.2237C49.3649 13.3933 49.3162 13.5697 49.3067 13.7529H52.356Z" fill="white"/>
<path d="M60.7397 18.1888V14.2456C60.7397 14.0421 60.7233 13.8493 60.6899 13.6662C60.6559 13.483 60.6004 13.3201 60.5233 13.1804C60.4463 13.0406 60.3381 12.9293 60.1987 12.8466C60.0594 12.7652 59.8832 12.7231 59.6708 12.7231C59.4583 12.7231 59.2731 12.7638 59.1151 12.8466C58.9553 12.9293 58.8228 13.042 58.7174 13.1872C58.6115 13.3324 58.5316 13.4993 58.4789 13.6879C58.4262 13.8765 58.399 14.0719 58.399 14.2754V18.1902H56.0128V10.97H58.3112V11.97H58.3396C58.4262 11.8153 58.5401 11.6633 58.6794 11.5128C58.8188 11.3635 58.9825 11.2346 59.1706 11.1287C59.3586 11.0229 59.5626 10.936 59.7846 10.8682C60.0067 10.8004 60.2418 10.7664 60.4922 10.7664C60.9737 10.7664 61.3838 10.8533 61.7203 11.027C62.0573 11.2006 62.3292 11.4259 62.5377 11.7013C62.7445 11.9768 62.8934 12.293 62.9852 12.6512C63.0775 13.0094 63.1223 13.3663 63.1223 13.7245V18.1902H60.7397V18.1888Z" fill="white"/>
<path d="M68.6602 18.1888V7.92496H71.1464V16.0285H75.1078V18.1888H68.6602Z" fill="white"/>
<path d="M83.5045 14.5508C83.5045 15.1411 83.3975 15.6743 83.1868 16.1534C82.9743 16.6323 82.6849 17.0381 82.3195 17.3719C81.953 17.7057 81.5293 17.9635 81.0478 18.148C80.5663 18.3312 80.0508 18.4235 79.5013 18.4235C78.9614 18.4235 78.4488 18.3312 77.9616 18.148C77.475 17.9648 77.0513 17.7057 76.6904 17.3719C76.329 17.0381 76.0424 16.6323 75.83 16.1534C75.6175 15.6743 75.5116 15.1411 75.5116 14.5508C75.5116 13.9619 75.6175 13.43 75.83 12.9564C76.0424 12.4829 76.329 12.0812 76.6904 11.7528C77.0513 11.4244 77.475 11.1734 77.9616 10.9984C78.4488 10.8247 78.9614 10.7379 79.5013 10.7379C80.0508 10.7379 80.5663 10.8247 81.0478 10.9984C81.5293 11.1721 81.953 11.4231 82.3195 11.7528C82.686 12.0812 82.9743 12.4829 83.1868 12.9564C83.3992 13.4286 83.5045 13.9605 83.5045 14.5508ZM81.2211 14.5508C81.2211 14.3188 81.1814 14.0922 81.1061 13.8696C81.0291 13.6471 80.918 13.4517 80.773 13.2821C80.6286 13.1125 80.4496 12.9754 80.2388 12.8682C80.0264 12.7623 79.7817 12.7094 79.5013 12.7094C79.2214 12.7094 78.9767 12.7623 78.7643 12.8682C78.5519 12.9754 78.3757 13.1125 78.2363 13.2821C78.097 13.4517 77.9905 13.6471 77.9185 13.8696C77.8466 14.0922 77.8103 14.3188 77.8103 14.5508C77.8103 14.7829 77.8466 15.0094 77.9185 15.232C77.9905 15.4545 78.0998 15.6554 78.2431 15.8331C78.3882 16.0122 78.5666 16.1547 78.7779 16.2605C78.9898 16.3664 79.235 16.4193 79.5149 16.4193C79.7947 16.4193 80.04 16.3664 80.2524 16.2605C80.4648 16.1547 80.6416 16.0122 80.7866 15.8331C80.9316 15.654 81.0398 15.4545 81.1112 15.232C81.1843 15.0094 81.2211 14.7829 81.2211 14.5508Z" fill="white"/>
<path d="M92.6401 14.5508C92.6401 15.1411 92.533 15.6743 92.3223 16.1534C92.1099 16.6323 91.8204 17.0381 91.455 17.3719C91.0885 17.7057 90.6648 17.9635 90.1833 18.148C89.7018 18.3312 89.1863 18.4235 88.6368 18.4235C88.097 18.4235 87.5843 18.3312 87.0972 18.148C86.6106 17.9648 86.1868 17.7057 85.826 17.3719C85.4646 17.0381 85.1779 16.6323 84.9655 16.1534C84.7531 15.6743 84.6472 15.1411 84.6472 14.5508C84.6472 13.9619 84.7531 13.43 84.9655 12.9564C85.1779 12.4829 85.4646 12.0812 85.826 11.7528C86.1868 11.4244 86.6106 11.1734 87.0972 10.9984C87.5843 10.8247 88.097 10.7379 88.6368 10.7379C89.1863 10.7379 89.7018 10.8247 90.1833 10.9984C90.6648 11.1721 91.0885 11.4231 91.455 11.7528C91.8216 12.0812 92.1099 12.4829 92.3223 12.9564C92.5347 13.4286 92.6401 13.9605 92.6401 14.5508ZM90.3567 14.5508C90.3567 14.3188 90.317 14.0922 90.2417 13.8696C90.1641 13.6471 90.0536 13.4517 89.9086 13.2821C89.7641 13.1125 89.5851 12.9754 89.3744 12.8682C89.162 12.7623 88.9172 12.7094 88.6368 12.7094C88.357 12.7094 88.1123 12.7623 87.8999 12.8682C87.6874 12.9754 87.5113 13.1125 87.3719 13.2821C87.2326 13.4517 87.1261 13.6471 87.0541 13.8696C86.9822 14.0922 86.9459 14.3188 86.9459 14.5508C86.9459 14.7829 86.9822 15.0094 87.0541 15.232C87.1261 15.4545 87.2354 15.6554 87.3787 15.8331C87.5237 16.0122 87.7022 16.1547 87.9134 16.2605C88.1253 16.3664 88.3706 16.4193 88.6504 16.4193C88.9303 16.4193 89.1756 16.3664 89.388 16.2605C89.6004 16.1547 89.7772 16.0122 89.9222 15.8331C90.0672 15.654 90.1754 15.4545 90.2468 15.232C90.321 15.0094 90.3567 14.7829 90.3567 14.5508Z" fill="white"/>
<path d="M96.7153 12.738V15.5034C96.7153 15.8426 96.7805 16.0977 96.9102 16.2673C97.0399 16.437 97.2744 16.5225 97.6109 16.5225C97.7259 16.5225 97.8494 16.513 97.9791 16.4939C98.1088 16.475 98.217 16.4451 98.3037 16.4071L98.332 18.1467C98.1683 18.2051 97.9616 18.2552 97.7112 18.2987C97.4608 18.3421 97.2104 18.3638 96.9589 18.3638C96.4774 18.3638 96.0729 18.3027 95.7444 18.182C95.417 18.0612 95.1541 17.8862 94.957 17.6582C94.7593 17.4302 94.6171 17.1589 94.5304 16.8441C94.4443 16.5292 94.4007 16.1778 94.4007 15.7897V12.7366H93.244V10.9699H94.386V9.07019H96.713V10.9699H98.404V12.7393H96.7153V12.738Z" fill="white"/>
</g>
<defs>
<linearGradient id="paint0_linear_47_2913" x1="9.30564" y1="13.2782" x2="13.9758" y2="4.33816" gradientUnits="userSpaceOnUse">
<stop stop-color="white"/>
<stop offset="1"/>
</linearGradient>
</defs>
</svg>
