<svg width="128" height="128" viewBox="0 0 128 128" fill="none" xmlns="http://www.w3.org/2000/svg">
<mask id="mask0_2378_5953" style="mask-type:alpha" maskUnits="userSpaceOnUse" x="9" y="0" width="111" height="128">
<path d="M57.3443 5.20603L16.993 28.5342C12.6653 31.0361 9.99999 35.6556 9.99999 40.6544V87.3456C9.99999 92.3444 12.6653 96.9639 16.993 99.4658L57.3443 122.794C61.6795 125.3 67.0232 125.3 71.3584 122.794L111.71 99.4658C116.037 96.9639 118.703 92.3444 118.703 87.3456V40.6544C118.703 35.6556 116.037 31.0361 111.71 28.5342L71.3584 5.20603C67.0232 2.69975 61.6795 2.69975 57.3443 5.20603Z" fill="#D9D9D9" stroke="url(#paint0_linear_2378_5953)" stroke-width="2"/>
</mask>
<g mask="url(#mask0_2378_5953)">
<rect width="128" height="128" fill="url(#paint1_linear_2378_5953)"/>
<g filter="url(#filter0_d_2378_5953)">
<g filter="url(#filter1_d_2378_5953)">
<path d="M83.0561 26.0001C83.4795 26.1251 83.9419 26.1815 84.3191 26.3899C91.1546 30.1696 96.4351 35.5279 99.9831 42.5089C102.538 47.5388 103.852 52.9216 103.908 58.6182C103.952 62.9372 103.504 67.1803 102.139 71.264C98.9683 80.7501 93.1111 87.9738 84.0441 92.3149C79.8829 94.3077 75.4225 95.3764 70.8233 95.3617C61.7247 95.3323 54.0472 92.0011 48.3919 84.6549C45.8684 81.3752 43.9363 77.7033 43.4496 73.5044C43.1235 70.6928 43.1162 67.8421 43.0383 65.006C43.0213 64.3736 43.3133 63.7314 43.3596 63.0647C41.6099 65.0502 40.7461 67.4572 40.1036 69.9256C39.2446 73.2225 39.3566 76.5782 40.1328 79.8701C41.1135 84.0347 42.9142 87.812 45.6251 91.1628C49.8398 96.3716 55.1422 99.8891 61.5519 101.661C63.5059 102.201 65.5476 102.455 67.5649 102.708C69.4411 102.941 71.3562 103.23 73.2226 103.078C76.7365 102.794 80.2285 102.203 83.7302 101.754C84.4237 101.666 85.1245 101.642 85.8205 101.588C85.874 101.737 85.9276 101.887 85.9811 102.036C84.8082 102.774 83.7107 103.701 82.4453 104.213C79.9243 105.235 77.3278 106.083 74.7314 106.907C70.5653 108.228 66.246 108.123 61.9948 107.77C57.8263 107.424 53.8282 106.167 50.032 104.287C45.2284 101.909 41.1232 98.6831 37.7091 94.5454C34.8304 91.0574 32.6914 87.1747 31.1802 82.8875C29.6837 78.647 28.8685 74.3378 29.1483 69.8447C29.562 63.2314 31.8616 57.3461 36.0398 52.2328C38.7725 48.887 42.0917 46.2985 46.0193 44.465C50.1999 42.5114 54.5777 41.6927 59.1477 41.8692C65.4819 42.1143 70.8598 44.5581 75.2667 49.1566C75.3105 49.2007 75.42 49.1811 75.6342 49.2105C75.605 48.936 75.6512 48.6541 75.5441 48.458C72.7286 43.3448 68.6015 39.6484 63.1896 37.636C58.8289 36.0157 54.3003 35.5672 49.611 36.3589C40.6585 37.8713 33.8789 42.6879 28.5789 49.8552C25.9897 53.358 24.1841 57.3142 22.6292 61.3758C22.0184 62.974 21.4903 64.6041 20.6362 66.3616C20.4585 65.9228 20.1519 65.4938 20.1252 65.0477C19.9524 62.2313 20.4245 59.4933 20.9501 56.7259C21.556 53.5271 22.5829 50.5195 24.0332 47.654C27.0385 41.7074 31.3822 36.9619 36.945 33.3268C39.9187 31.3854 43.1041 29.8926 46.4573 28.8116C48.2678 28.2283 50.1805 27.9047 52.0712 27.662C54.2297 27.385 56.4222 27.1448 58.588 27.2135C65.4332 27.4316 71.709 29.5004 77.3011 33.54C82.4891 37.2879 86.1636 42.2197 88.3002 48.2546C88.9256 50.0194 89.1835 51.9265 89.4999 53.7845C89.7383 55.1792 89.9646 56.6131 89.9135 58.0177C89.714 63.4593 88.2588 68.5235 85.1635 73.0582C82.3845 77.1297 78.7587 80.0785 74.0962 81.6963C73.1204 82.0345 72.1495 82.3924 71.1907 82.7772C71.0131 82.8483 70.9036 83.0885 70.6432 83.39C71.0423 83.4513 71.2637 83.5175 71.4852 83.515C78.783 83.3998 85.1391 81.0222 90.0644 75.4359C92.3956 72.7911 94.0017 69.7025 95.0943 66.315C96.3062 62.5598 97.1068 58.7506 96.99 54.7968C96.8293 49.3355 95.3571 44.2297 92.7022 39.4621C90.1788 34.9274 87.1613 30.7702 83.4771 27.1179C83.2557 26.8973 83.0975 26.6105 82.9101 26.3555C82.9588 26.2379 83.0075 26.1227 83.0561 26.005V26.0001Z" fill="white"/>
</g>
</g>
</g>
<path d="M57.3443 5.20603L16.993 28.5342C12.6653 31.0361 9.99999 35.6556 9.99999 40.6544V87.3456C9.99999 92.3444 12.6653 96.9639 16.993 99.4658L57.3443 122.794C61.6795 125.3 67.0232 125.3 71.3584 122.794L111.71 99.4658C116.037 96.9639 118.703 92.3444 118.703 87.3456V40.6544C118.703 35.6556 116.037 31.0361 111.71 28.5342L71.3584 5.20603C67.0232 2.69975 61.6795 2.69975 57.3443 5.20603Z" stroke="url(#paint2_linear_2378_5953)" stroke-width="2"/>
<defs>
<filter id="filter0_d_2378_5953" x="20.0889" y="26.0001" width="83.8222" height="85" filterUnits="userSpaceOnUse" color-interpolation-filters="sRGB">
<feFlood flood-opacity="0" result="BackgroundImageFix"/>
<feColorMatrix in="SourceAlpha" type="matrix" values="0 0 0 0 0 0 0 0 0 0 0 0 0 0 0 0 0 0 127 0" result="hardAlpha"/>
<feOffset dy="3"/>
<feComposite in2="hardAlpha" operator="out"/>
<feColorMatrix type="matrix" values="0 0 0 0 0 0 0 0 0 0 0 0 0 0 0 0 0 0 0.3 0"/>
<feBlend mode="normal" in2="BackgroundImageFix" result="effect1_dropShadow_2378_5953"/>
<feBlend mode="normal" in="SourceGraphic" in2="effect1_dropShadow_2378_5953" result="shape"/>
</filter>
<filter id="filter1_d_2378_5953" x="20.0889" y="26.0001" width="83.8222" height="85" filterUnits="userSpaceOnUse" color-interpolation-filters="sRGB">
<feFlood flood-opacity="0" result="BackgroundImageFix"/>
<feColorMatrix in="SourceAlpha" type="matrix" values="0 0 0 0 0 0 0 0 0 0 0 0 0 0 0 0 0 0 127 0" result="hardAlpha"/>
<feOffset dy="3"/>
<feComposite in2="hardAlpha" operator="out"/>
<feColorMatrix type="matrix" values="0 0 0 0 0 0 0 0 0 0 0 0 0 0 0 0 0 0 0.3 0"/>
<feBlend mode="normal" in2="BackgroundImageFix" result="effect1_dropShadow_2378_5953"/>
<feBlend mode="normal" in="SourceGraphic" in2="effect1_dropShadow_2378_5953" result="shape"/>
</filter>
<linearGradient id="paint0_linear_2378_5953" x1="64.3513" y1="0" x2="64.3513" y2="128" gradientUnits="userSpaceOnUse">
<stop stop-color="white" stop-opacity="0.3"/>
<stop offset="1" stop-color="white" stop-opacity="0"/>
</linearGradient>
<linearGradient id="paint1_linear_2378_5953" x1="64" y1="0" x2="64" y2="128" gradientUnits="userSpaceOnUse">
<stop stop-color="#362167"/>
<stop offset="1" stop-color="#8A2C6A"/>
</linearGradient>
<linearGradient id="paint2_linear_2378_5953" x1="64.3513" y1="0" x2="64.3513" y2="128" gradientUnits="userSpaceOnUse">
<stop stop-color="white" stop-opacity="0.3"/>
<stop offset="1" stop-color="white" stop-opacity="0"/>
</linearGradient>
</defs>
</svg>
