<svg width="128" height="128" viewBox="0 0 128 128" fill="none" xmlns="http://www.w3.org/2000/svg">
<mask id="mask0_2378_5953" style="mask-type:alpha" maskUnits="userSpaceOnUse" x="9" y="0" width="111" height="128">
<path d="M57.3443 5.20603L16.993 28.5342C12.6653 31.0361 9.99999 35.6556 9.99999 40.6544V87.3456C9.99999 92.3444 12.6653 96.9639 16.993 99.4658L57.3443 122.794C61.6795 125.3 67.0232 125.3 71.3584 122.794L111.71 99.4658C116.037 96.9639 118.703 92.3444 118.703 87.3456V40.6544C118.703 35.6556 116.037 31.0361 111.71 28.5342L71.3584 5.20603C67.0232 2.69975 61.6795 2.69975 57.3443 5.20603Z" fill="#D9D9D9" stroke="url(#paint0_linear_2378_5953)" stroke-width="2"/>
</mask>
<g mask="url(#mask0_2378_5953)">
<rect width="128" height="128" fill="url(#paint1_linear_2378_5953)"/>
<g filter="url(#filter0_d_2378_5953)">
<path fill-rule="evenodd" clip-rule="evenodd" d="M55 18L63.5 25L72 18V34L67 38.1176V48C67 48.7403 66.5978 49.3866 66 49.7324V86.2676C66.5978 86.6134 67 87.2597 67 88V94H74L63.7692 113L53 94H60V88C60 87.2597 60.4022 86.6134 61 86.2676V49.7324C60.4022 49.3866 60 48.7403 60 48V38.1176L55 34V18Z" fill="white"/>
<path opacity="0.5" fill-rule="evenodd" clip-rule="evenodd" d="M78.2316 6L84.4052 11.0842L90.5789 6V17.6211L86.9473 20.6118V27.2425C86.9473 27.8642 86.6637 28.4197 86.2187 28.7865C86.2203 28.8171 86.221 28.8479 86.221 28.8789V55.7525C86.221 55.7838 86.2203 55.8148 86.2187 55.8456C86.6637 56.2125 86.9473 56.7679 86.9473 57.3896V61.2004H92.0316L84.6008 75.0004L76.7789 61.2004H81.8631V57.3896C81.8631 56.7679 82.1468 56.2124 82.5918 55.8456C82.5902 55.8148 82.5895 55.7838 82.5895 55.7525V28.8789C82.5895 28.8479 82.5902 28.8171 82.5918 28.7865C82.1468 28.4197 81.8631 27.8643 81.8631 27.2425V20.6117L78.2316 17.6211V6Z" fill="white"/>
<path opacity="0.5" fill-rule="evenodd" clip-rule="evenodd" d="M36.4526 6L42.6263 11.0842L48.8 6V17.6211L45.1684 20.6118V27.2425C45.1684 27.8642 44.8847 28.4197 44.4398 28.7865C44.4413 28.8171 44.4421 28.8479 44.4421 28.8789V55.7525C44.4421 55.7838 44.4413 55.8148 44.4398 55.8456C44.8847 56.2125 45.1684 56.7679 45.1684 57.3896V61.2004H50.2526L42.8219 75.0004L35 61.2004H40.0842V57.3896C40.0842 56.7679 40.3679 56.2124 40.8129 55.8456C40.8113 55.8148 40.8105 55.7838 40.8105 55.7525V28.8789C40.8105 28.8479 40.8113 28.8171 40.8128 28.7865C40.3679 28.4197 40.0842 27.8643 40.0842 27.2425V20.6117L36.4526 17.6211V6Z" fill="white"/>
<path opacity="0.2" fill-rule="evenodd" clip-rule="evenodd" d="M16.4105 -10L22.4052 -5.06319L28.3999 -10V1.28415L24.8736 4.18819V10.5688C24.8736 11.1814 24.5982 11.7297 24.1644 12.0965C24.167 12.136 24.1684 12.1758 24.1684 12.216V38.3106C24.1684 38.3507 24.167 38.3906 24.1644 38.4301C24.5982 38.7969 24.8736 39.3452 24.8736 39.9578V43.5999H29.8104L22.5951 56.9998L15 43.5999H19.9368V39.9578C19.9368 39.3451 20.2122 38.7968 20.6461 38.43C20.6434 38.3905 20.6421 38.3507 20.6421 38.3106V12.216C20.6421 12.1759 20.6434 12.1361 20.6461 12.0966C20.2122 11.7298 19.9368 11.1814 19.9368 10.5688V4.18812L16.4105 1.28415V-10Z" fill="white"/>
<path opacity="0.2" fill-rule="evenodd" clip-rule="evenodd" d="M99.4105 -10L105.405 -5.06319L111.4 -10V1.28415L107.874 4.18819V10.5688C107.874 11.1814 107.598 11.7297 107.164 12.0965C107.167 12.136 107.168 12.1758 107.168 12.216V38.3106C107.168 38.3507 107.167 38.3906 107.164 38.4301C107.598 38.7969 107.874 39.3452 107.874 39.9578V43.5999H112.81L105.595 56.9998L98 43.5999H102.937V39.9578C102.937 39.3451 103.212 38.7968 103.646 38.43C103.643 38.3905 103.642 38.3507 103.642 38.3106V12.216C103.642 12.1759 103.643 12.1361 103.646 12.0966C103.212 11.7298 102.937 11.1814 102.937 10.5688V4.18812L99.4105 1.28415V-10Z" fill="white"/>
</g>
</g>
<path d="M57.3443 5.20603L16.993 28.5342C12.6653 31.0361 9.99999 35.6556 9.99999 40.6544V87.3456C9.99999 92.3444 12.6653 96.9639 16.993 99.4658L57.3443 122.794C61.6795 125.3 67.0232 125.3 71.3584 122.794L111.71 99.4658C116.037 96.9639 118.703 92.3444 118.703 87.3456V40.6544C118.703 35.6556 116.037 31.0361 111.71 28.5342L71.3584 5.20603C67.0232 2.69975 61.6795 2.69975 57.3443 5.20603Z" stroke="url(#paint2_linear_2378_5953)" stroke-width="2"/>
<defs>
<filter id="filter0_d_2378_5953" x="15" y="-10" width="97.8104" height="126" filterUnits="userSpaceOnUse" color-interpolation-filters="sRGB">
<feFlood flood-opacity="0" result="BackgroundImageFix"/>
<feColorMatrix in="SourceAlpha" type="matrix" values="0 0 0 0 0 0 0 0 0 0 0 0 0 0 0 0 0 0 127 0" result="hardAlpha"/>
<feOffset dy="3"/>
<feComposite in2="hardAlpha" operator="out"/>
<feColorMatrix type="matrix" values="0 0 0 0 0 0 0 0 0 0 0 0 0 0 0 0 0 0 0.3 0"/>
<feBlend mode="normal" in2="BackgroundImageFix" result="effect1_dropShadow_2378_5953"/>
<feBlend mode="normal" in="SourceGraphic" in2="effect1_dropShadow_2378_5953" result="shape"/>
</filter>
<linearGradient id="paint0_linear_2378_5953" x1="64.3513" y1="0" x2="64.3513" y2="128" gradientUnits="userSpaceOnUse">
<stop stop-color="white" stop-opacity="0.3"/>
<stop offset="1" stop-color="white" stop-opacity="0"/>
</linearGradient>
<linearGradient id="paint1_linear_2378_5953" x1="64" y1="0" x2="64" y2="128" gradientUnits="userSpaceOnUse">
<stop stop-color="#362167"/>
<stop offset="1" stop-color="#8A2C6A"/>
</linearGradient>
<linearGradient id="paint2_linear_2378_5953" x1="64.3513" y1="0" x2="64.3513" y2="128" gradientUnits="userSpaceOnUse">
<stop stop-color="white" stop-opacity="0.3"/>
<stop offset="1" stop-color="white" stop-opacity="0"/>
</linearGradient>
</defs>
</svg>
