<svg width="128" height="128" viewBox="0 0 128 128" fill="none" xmlns="http://www.w3.org/2000/svg">
<mask id="mask0_2378_5953" style="mask-type:alpha" maskUnits="userSpaceOnUse" x="9" y="0" width="111" height="128">
<path d="M57.3443 5.20603L16.993 28.5342C12.6653 31.0361 9.99999 35.6556 9.99999 40.6544V87.3456C9.99999 92.3444 12.6653 96.9639 16.993 99.4658L57.3443 122.794C61.6795 125.3 67.0232 125.3 71.3584 122.794L111.71 99.4658C116.037 96.9639 118.703 92.3444 118.703 87.3456V40.6544C118.703 35.6556 116.037 31.0361 111.71 28.5342L71.3584 5.20603C67.0232 2.69975 61.6795 2.69975 57.3443 5.20603Z" fill="#D9D9D9" stroke="url(#paint0_linear_2378_5953)" stroke-width="2"/>
</mask>
<g mask="url(#mask0_2378_5953)">
<rect width="128" height="128" fill="url(#paint1_linear_2378_5953)"/>
<g filter="url(#filter0_d_2378_5953)">
<g filter="url(#filter1_d_2378_5953)">
<path d="M66.0803 45.4415C69.1651 29.2865 75.274 -3.41889 75.0312 -5.00037L37.4711 0.76474L45.0131 66.38L56.8374 61.0241L56.7111 96.4534L67.1286 91.8193L65.2575 115.882L83.1778 71.1451L67.4366 80.6432L81.4791 37.0077L66.0803 45.4415Z" fill="url(#paint2_linear_2378_5953)" shape-rendering="crispEdges"/>
</g>
<g filter="url(#filter2_d_2378_5953)">
<path fill-rule="evenodd" clip-rule="evenodd" d="M88.4893 94.92L76.696 106.086L85.4563 83.687L88.5544 87.9764L100.348 76.8107L91.5874 99.2093L88.4893 94.92Z" fill="white"/>
</g>
<g filter="url(#filter3_d_2378_5953)">
<path fill-rule="evenodd" clip-rule="evenodd" d="M40.7335 97.1246L53.3332 106.826L42.5687 85.8807L39.9781 90.3677L27.3784 80.6666L38.143 101.612L40.7335 97.1246Z" fill="white"/>
</g>
</g>
</g>
<path d="M57.3443 5.20603L16.993 28.5342C12.6653 31.0361 9.99999 35.6556 9.99999 40.6544V87.3456C9.99999 92.3444 12.6653 96.9639 16.993 99.4658L57.3443 122.794C61.6795 125.3 67.0232 125.3 71.3584 122.794L111.71 99.4658C116.037 96.9639 118.703 92.3444 118.703 87.3456V40.6544C118.703 35.6556 116.037 31.0361 111.71 28.5342L71.3584 5.20603C67.0232 2.69975 61.6795 2.69975 57.3443 5.20603Z" stroke="url(#paint3_linear_2378_5953)" stroke-width="2"/>
<defs>
<filter id="filter0_d_2378_5953" x="27.3784" y="-5.00037" width="72.9692" height="123.882" filterUnits="userSpaceOnUse" color-interpolation-filters="sRGB">
<feFlood flood-opacity="0" result="BackgroundImageFix"/>
<feColorMatrix in="SourceAlpha" type="matrix" values="0 0 0 0 0 0 0 0 0 0 0 0 0 0 0 0 0 0 127 0" result="hardAlpha"/>
<feOffset dy="3"/>
<feComposite in2="hardAlpha" operator="out"/>
<feColorMatrix type="matrix" values="0 0 0 0 0 0 0 0 0 0 0 0 0 0 0 0 0 0 0.3 0"/>
<feBlend mode="normal" in2="BackgroundImageFix" result="effect1_dropShadow_2378_5953"/>
<feBlend mode="normal" in="SourceGraphic" in2="effect1_dropShadow_2378_5953" result="shape"/>
</filter>
<filter id="filter1_d_2378_5953" x="37.4711" y="-5.00037" width="45.7067" height="123.882" filterUnits="userSpaceOnUse" color-interpolation-filters="sRGB">
<feFlood flood-opacity="0" result="BackgroundImageFix"/>
<feColorMatrix in="SourceAlpha" type="matrix" values="0 0 0 0 0 0 0 0 0 0 0 0 0 0 0 0 0 0 127 0" result="hardAlpha"/>
<feOffset dy="3"/>
<feComposite in2="hardAlpha" operator="out"/>
<feColorMatrix type="matrix" values="0 0 0 0 0 0 0 0 0 0 0 0 0 0 0 0 0 0 0.3 0"/>
<feBlend mode="normal" in2="BackgroundImageFix" result="effect1_dropShadow_2378_5953"/>
<feBlend mode="normal" in="SourceGraphic" in2="effect1_dropShadow_2378_5953" result="shape"/>
</filter>
<filter id="filter2_d_2378_5953" x="76.696" y="76.8107" width="23.6517" height="32.275" filterUnits="userSpaceOnUse" color-interpolation-filters="sRGB">
<feFlood flood-opacity="0" result="BackgroundImageFix"/>
<feColorMatrix in="SourceAlpha" type="matrix" values="0 0 0 0 0 0 0 0 0 0 0 0 0 0 0 0 0 0 127 0" result="hardAlpha"/>
<feOffset dy="3"/>
<feComposite in2="hardAlpha" operator="out"/>
<feColorMatrix type="matrix" values="0 0 0 0 0 0 0 0 0 0 0 0 0 0 0 0 0 0 0.3 0"/>
<feBlend mode="normal" in2="BackgroundImageFix" result="effect1_dropShadow_2378_5953"/>
<feBlend mode="normal" in="SourceGraphic" in2="effect1_dropShadow_2378_5953" result="shape"/>
</filter>
<filter id="filter3_d_2378_5953" x="27.3784" y="80.6666" width="25.9548" height="29.1591" filterUnits="userSpaceOnUse" color-interpolation-filters="sRGB">
<feFlood flood-opacity="0" result="BackgroundImageFix"/>
<feColorMatrix in="SourceAlpha" type="matrix" values="0 0 0 0 0 0 0 0 0 0 0 0 0 0 0 0 0 0 127 0" result="hardAlpha"/>
<feOffset dy="3"/>
<feComposite in2="hardAlpha" operator="out"/>
<feColorMatrix type="matrix" values="0 0 0 0 0 0 0 0 0 0 0 0 0 0 0 0 0 0 0.3 0"/>
<feBlend mode="normal" in2="BackgroundImageFix" result="effect1_dropShadow_2378_5953"/>
<feBlend mode="normal" in="SourceGraphic" in2="effect1_dropShadow_2378_5953" result="shape"/>
</filter>
<linearGradient id="paint0_linear_2378_5953" x1="64.3513" y1="0" x2="64.3513" y2="128" gradientUnits="userSpaceOnUse">
<stop stop-color="white" stop-opacity="0.3"/>
<stop offset="1" stop-color="white" stop-opacity="0"/>
</linearGradient>
<linearGradient id="paint1_linear_2378_5953" x1="64" y1="0" x2="64" y2="128" gradientUnits="userSpaceOnUse">
<stop stop-color="#362167"/>
<stop offset="1" stop-color="#8A2C6A"/>
</linearGradient>
<linearGradient id="paint2_linear_2378_5953" x1="55.4708" y1="1.0371" x2="64.9529" y2="62.8136" gradientUnits="userSpaceOnUse">
<stop stop-color="white" stop-opacity="0"/>
<stop offset="1" stop-color="white"/>
</linearGradient>
<linearGradient id="paint3_linear_2378_5953" x1="64.3513" y1="0" x2="64.3513" y2="128" gradientUnits="userSpaceOnUse">
<stop stop-color="white" stop-opacity="0.3"/>
<stop offset="1" stop-color="white" stop-opacity="0"/>
</linearGradient>
</defs>
</svg>
