<svg width="128" height="128" viewBox="0 0 128 128" fill="none" xmlns="http://www.w3.org/2000/svg">
<mask id="mask0_2378_5953" style="mask-type:alpha" maskUnits="userSpaceOnUse" x="9" y="0" width="111" height="128">
<path d="M57.3443 5.20603L16.993 28.5342C12.6653 31.0361 9.99999 35.6556 9.99999 40.6544V87.3456C9.99999 92.3444 12.6653 96.9639 16.993 99.4658L57.3443 122.794C61.6795 125.3 67.0232 125.3 71.3584 122.794L111.71 99.4658C116.037 96.9639 118.703 92.3444 118.703 87.3456V40.6544C118.703 35.6556 116.037 31.0361 111.71 28.5342L71.3584 5.20603C67.0232 2.69975 61.6795 2.69975 57.3443 5.20603Z" fill="#D9D9D9" stroke="url(#paint0_linear_2378_5953)" stroke-width="2"/>
</mask>
<g mask="url(#mask0_2378_5953)">
<rect width="128" height="128" fill="url(#paint1_linear_2378_5953)"/>
<g filter="url(#filter0_d_2378_5953)">
<path d="M20.1419 15C18.7672 18.3016 19.6955 20.7756 20.856 23.1962C21.9272 25.421 23.9536 26.7381 25.7836 28.2509C27.9349 30.0219 29.6578 32.131 28.7919 35.1389C27.9171 38.1735 25.5068 39.6063 22.5699 40.2115C21.5612 40.4161 20.5079 40.3716 19.4724 40.3983C18.6154 40.425 17.5531 40.0424 17.1336 41.1192C16.6961 42.2405 17.4549 43.1215 18.1869 43.8423C20.3293 45.9603 23.1145 45.6044 25.7657 45.6578C29.4346 45.7201 32.9874 46.1205 35.2281 49.52C36.8795 52.0385 37.7454 54.8506 35.1834 57.2C32.4429 59.7185 30.3273 57.8052 28.4259 55.6605C28.3009 55.527 27.8903 55.6427 27.6136 55.6427C26.3013 62.0501 28.5598 67.2472 34.7906 68.8491C42.0302 70.7179 44.9671 75.2565 47.0292 81.8953C50.9213 94.4076 58.8482 103.316 72.274 106.35C85.7445 109.403 99.938 101.34 103 87.9379C106.258 73.7081 101.902 62.4417 85.9676 58.3391C84.8161 58.0455 83.6913 57.645 82.5755 57.2356C80.2813 56.3991 77.764 55.2333 77.1391 52.9462C75.5055 46.9837 70.2566 45.2217 65.8825 42.3918C65.4361 42.107 64.7488 41.7599 64.356 41.9112C63.5972 42.2138 63.4366 43.1126 63.6419 43.8156C63.9186 44.7945 64.3292 45.7735 64.8827 46.6189C66.2217 48.639 67.2661 50.757 64.6327 52.35C61.8744 54.0141 60.1872 51.9495 58.8214 49.9294C56.8129 46.966 56.8665 43.4508 56.5094 40.078C56.197 37.1323 54.9115 35.0143 52.0639 34.0265C50.8856 33.6171 49.3769 33.4036 49.5198 35.2457C49.7162 37.7998 49.3591 39.9 46.4043 40.0691C43.3335 40.2471 41.5393 38.218 40.4234 35.5839C39.4772 33.3502 39.5932 30.9385 39.2719 28.598C38.7273 24.6467 36.7992 21.6299 32.434 21.8791C26.8459 22.1995 22.4539 20.8646 20.1686 15L20.1419 15Z" fill="white"/>
<g filter="url(#filter1_d_2378_5953)">
<path d="M65.0709 7C66.7248 8.2522 67.01 10.0703 67.0124 11.9847C67.0124 12.6229 66.9429 13.2682 66.8327 13.8991C66.5259 15.6498 66.9645 17.0682 68.2565 18.3685C69.1505 19.2691 69.733 20.4852 70.5024 21.6339C70.663 21.1402 70.8667 20.5141 71.0681 19.9001C73.7215 23.7698 70.5168 30.2331 65.3514 30.8929C67.2473 29.7828 67.8082 28.2151 67.7627 26.096C67.3816 26.503 67.1443 26.7582 66.7152 27.2158C66.7056 25.1376 65.5983 24.0492 64.1769 23.0907C63.6399 22.7295 63.3811 21.9565 62.9305 21.2751C62.8274 21.8939 62.5997 22.638 62.5997 23.3797C62.5997 25.128 62.1922 25.8119 60.5 26.6836C60.3154 26.7799 60.2051 27.1484 60.1788 27.4036C60.0397 28.6847 60.6174 29.6479 61.6049 30.3944C61.8806 30.6015 62.1946 30.7581 62.5973 31.0037C56.3556 30.4041 53.8748 23.8469 55.4712 18.3107C55.9266 19.4329 56.3796 20.5478 56.8326 21.6652C56.9477 21.6411 57.0603 21.6146 57.1754 21.5905C57.2161 21.3064 57.2785 21.0246 57.2952 20.7381C57.4726 17.4944 58.9324 15.0141 61.6649 13.2851C62.2042 12.9431 62.7531 12.6132 63.2852 12.2568C65.3969 10.8361 65.7996 9.58868 65.0733 7H65.0709Z" fill="white"/>
</g>
</g>
</g>
<path d="M57.3443 5.20603L16.993 28.5342C12.6653 31.0361 9.99999 35.6556 9.99999 40.6544V87.3456C9.99999 92.3444 12.6653 96.9639 16.993 99.4658L57.3443 122.794C61.6795 125.3 67.0232 125.3 71.3584 122.794L111.71 99.4658C116.037 96.9639 118.703 92.3444 118.703 87.3456V40.6544C118.703 35.6556 116.037 31.0361 111.71 28.5342L71.3584 5.20603C67.0232 2.69975 61.6795 2.69975 57.3443 5.20603Z" stroke="url(#paint2_linear_2378_5953)" stroke-width="2"/>
<defs>
<filter id="filter0_d_2378_5953" x="17.0048" y="7" width="87.0048" height="102.995" filterUnits="userSpaceOnUse" color-interpolation-filters="sRGB">
<feFlood flood-opacity="0" result="BackgroundImageFix"/>
<feColorMatrix in="SourceAlpha" type="matrix" values="0 0 0 0 0 0 0 0 0 0 0 0 0 0 0 0 0 0 127 0" result="hardAlpha"/>
<feOffset dy="3"/>
<feComposite in2="hardAlpha" operator="out"/>
<feColorMatrix type="matrix" values="0 0 0 0 0 0 0 0 0 0 0 0 0 0 0 0 0 0 0.3 0"/>
<feBlend mode="normal" in2="BackgroundImageFix" result="effect1_dropShadow_2378_5953"/>
<feBlend mode="normal" in="SourceGraphic" in2="effect1_dropShadow_2378_5953" result="shape"/>
</filter>
<filter id="filter1_d_2378_5953" x="55" y="7" width="17.0208" height="27.0037" filterUnits="userSpaceOnUse" color-interpolation-filters="sRGB">
<feFlood flood-opacity="0" result="BackgroundImageFix"/>
<feColorMatrix in="SourceAlpha" type="matrix" values="0 0 0 0 0 0 0 0 0 0 0 0 0 0 0 0 0 0 127 0" result="hardAlpha"/>
<feOffset dy="3"/>
<feComposite in2="hardAlpha" operator="out"/>
<feColorMatrix type="matrix" values="0 0 0 0 0 0 0 0 0 0 0 0 0 0 0 0 0 0 0.3 0"/>
<feBlend mode="normal" in2="BackgroundImageFix" result="effect1_dropShadow_2378_5953"/>
<feBlend mode="normal" in="SourceGraphic" in2="effect1_dropShadow_2378_5953" result="shape"/>
</filter>
<linearGradient id="paint0_linear_2378_5953" x1="64.3513" y1="0" x2="64.3513" y2="128" gradientUnits="userSpaceOnUse">
<stop stop-color="white" stop-opacity="0.3"/>
<stop offset="1" stop-color="white" stop-opacity="0"/>
</linearGradient>
<linearGradient id="paint1_linear_2378_5953" x1="64" y1="0" x2="64" y2="128" gradientUnits="userSpaceOnUse">
<stop stop-color="#362167"/>
<stop offset="1" stop-color="#8A2C6A"/>
</linearGradient>
<linearGradient id="paint2_linear_2378_5953" x1="64.3513" y1="0" x2="64.3513" y2="128" gradientUnits="userSpaceOnUse">
<stop stop-color="white" stop-opacity="0.3"/>
<stop offset="1" stop-color="white" stop-opacity="0"/>
</linearGradient>
</defs>
</svg>
