<svg width="128" height="128" viewBox="0 0 128 128" fill="none" xmlns="http://www.w3.org/2000/svg">
<mask id="mask0_2378_5953" style="mask-type:alpha" maskUnits="userSpaceOnUse" x="9" y="0" width="111" height="128">
<path d="M57.3443 5.20603L16.993 28.5342C12.6653 31.0361 9.99999 35.6556 9.99999 40.6544V87.3456C9.99999 92.3444 12.6653 96.9639 16.993 99.4658L57.3443 122.794C61.6795 125.3 67.0232 125.3 71.3584 122.794L111.71 99.4658C116.037 96.9639 118.703 92.3444 118.703 87.3456V40.6544C118.703 35.6556 116.037 31.0361 111.71 28.5342L71.3584 5.20603C67.0232 2.69975 61.6795 2.69975 57.3443 5.20603Z" fill="#D9D9D9" stroke="url(#paint0_linear_2378_5953)" stroke-width="2"/>
</mask>
<g mask="url(#mask0_2378_5953)">
<rect width="128" height="128" fill="url(#paint1_linear_2378_5953)"/>
<g filter="url(#filter0_d_2378_5953)">
<g filter="url(#filter1_d_2378_5953)">
<path fill-rule="evenodd" clip-rule="evenodd" d="M69.711 15.3407C87.2943 18.1381 100.918 37.8199 100.918 61.6839C100.918 85.5479 87.2943 105.23 69.711 108.027C71.1248 108.252 72.5642 108.368 74.0242 108.368C93.6417 108.368 109.545 87.4668 109.545 61.6839C109.545 35.9011 93.6417 15 74.0242 15C72.5642 15 71.1248 15.1158 69.711 15.3407ZM66 23.8494C79.7893 26.1333 90.4737 42.202 90.4737 61.6851C90.4737 81.1681 79.7893 97.2368 66 99.5207C67.1088 99.7043 68.2376 99.7988 69.3825 99.7988C84.7671 99.7988 97.2387 82.7347 97.2387 61.6851C97.2387 40.6354 84.7671 23.5713 69.3825 23.5713C68.2376 23.5713 67.1088 23.6658 66 23.8494ZM82.1329 61.6856C82.1329 46.8383 76.3004 34.593 68.7731 32.8526C69.3783 32.7127 69.9945 32.6406 70.6195 32.6406C79.0177 32.6406 85.8258 45.6445 85.8258 61.6856C85.8258 77.7268 79.0177 90.7307 70.6195 90.7307C69.9945 90.7307 69.3783 90.6586 68.7731 90.5187C76.3004 88.7783 82.1329 76.5329 82.1329 61.6856Z" fill="white"/>
</g>
<g filter="url(#filter2_d_2378_5953)">
<path d="M55.1585 106.909C56.7735 102.855 58.3649 99.1505 60.2912 95.5932C61.083 94.1307 61.9535 92.7032 63.1392 91.5122C64.1634 90.4804 64.3682 89.5765 63.6159 88.1528C62.1111 85.2977 61.3666 82.1516 61.1224 78.9396C61.0278 77.7098 60.3345 76.8836 59.5506 76.2163C56.7972 73.8694 54.2722 71.2974 51.6959 68.772C50.6205 67.7208 49.9548 66.4212 49.293 65.1178C48.907 64.3574 48.7888 64.1945 47.808 64.7841C44.2667 66.9255 40.6072 68.9 36.8768 70.7C34.5763 71.8134 29.9557 71.631 28.7503 68.6169C27.3322 65.0829 25.788 61.6342 25.1893 57.786C24.6063 54.0425 22.8888 50.6287 19.3672 48.6038C17.1022 47.3003 16.8146 44.9262 15.8653 42.9439C15.2862 41.7297 15.298 40.2401 15.0499 38.8746C14.9908 38.5565 14.9199 38.1608 15.2547 38.0056C15.6171 37.8388 16.0504 37.8893 16.2986 38.2811C16.7989 39.0724 17.5749 39.7358 17.3976 40.8414C17.3188 41.3224 17.6655 41.7763 18.1894 41.722C18.7921 41.656 18.5597 41.1595 18.6188 40.7211C18.8866 38.766 17.827 36.8923 18.4888 34.8673C18.8393 33.7928 19.1939 32.8579 19.9699 32.051C20.3559 31.6514 20.3126 30.5885 21.2895 31.1704C22.1561 31.6825 22.3925 32.4816 21.6952 33.2846C20.6317 34.5066 20.9153 35.8914 21.0689 37.319C21.7661 36.1708 22.8258 35.3406 23.3654 34.0527C23.716 33.2225 24.5827 32.5592 25.3232 31.9424C25.7841 31.5544 26.4262 31.5622 26.9265 32.0471C27.537 32.6367 26.9068 32.9355 26.6113 33.3079C25.3705 34.8906 24.299 36.547 24.0115 38.5875C23.9445 39.053 23.5585 39.6233 24.3266 39.825C24.882 39.9685 25.012 39.4487 25.2917 39.0957C26.3632 37.7574 27.4661 36.4268 28.6558 35.1893C29.3136 34.5066 30.4284 34.5764 30.9877 35.0729C31.5668 35.585 30.7711 36.2134 30.3063 36.6401C29.1639 37.6953 28.6794 39.2509 27.4149 40.2207C27.021 40.5233 27.0564 41.0353 27.3834 41.4388C27.864 42.0284 28.0885 41.4737 28.4391 41.2332C29.4712 40.5272 30.6844 40.1392 31.4289 38.9599C31.7519 38.4479 32.8076 38.5914 33.493 38.7543C34.3163 38.9483 34.5684 39.5108 33.8082 40.1198C32.8746 40.8724 31.9213 41.6134 30.9168 42.2651C29.5066 43.1844 28.896 44.3405 28.9315 46.0745C28.9748 48.0956 29.4593 50.1749 27.7616 52.0641C26.9777 52.9369 28.4352 54.1123 29.1009 54.9231C31.1177 57.3787 33.3315 59.6674 34.7418 62.5613C35.2932 63.698 35.9196 64.435 37.314 63.1393C38.3973 62.1346 39.8312 61.32 41.2571 60.8933C43.6009 60.1911 44.8733 58.3213 45.9369 56.6106C48.4422 52.5761 51.2823 52.4481 55.7336 53.7787C56.1039 53.8873 56.4387 54.1084 56.809 54.2015C57.2541 54.314 57.581 54.0502 57.7544 53.6778C57.9356 53.2822 57.5968 53.1386 57.3092 52.9757C57.0847 52.8477 56.9035 52.6498 56.6869 52.5063C53.0313 50.1438 52.7516 46.4353 55.8321 43.1495C56.7972 42.1177 57.7977 41.0935 58.688 40.0035C59.4403 39.0802 60.6457 38.0367 61.406 38.5022C62.6705 39.2742 64.644 39.666 64.9079 41.4155C65.1088 42.7422 65.2979 43.4094 66.7672 44.0224C67.7165 44.4181 68.3822 46.121 69.0361 47.3508C70.017 49.1973 70.0288 50.3533 68.3744 52.0485C67.0429 53.414 66.8578 55.986 67.5865 57.8442C68.138 59.2485 69.6704 60.1717 71.569 60.4976C74.3304 60.9708 76.9617 62.0726 78.5532 64.6445C78.8486 65.1255 79.2898 65.6182 79.1637 66.2195C78.6674 68.5664 79.6995 70.7349 80.0973 72.9383C80.5031 75.1844 81.7439 77.2831 82.6223 79.4439C82.646 79.5021 82.7405 79.5447 82.7405 79.5952C82.6696 82.7723 85.624 83.1835 87.436 84.6847C90.1619 86.9502 93.1478 88.9131 95.6294 91.4618C97.3036 93.1803 98.1426 93.095 100.081 91.5976C102.098 90.0342 104.922 88.9868 107.187 91.4618C107.636 91.9545 108.302 92.0514 108.585 91.3881C108.837 90.7984 109.078 90.4028 109.653 90.8023C110.122 91.1282 110.047 92.0825 109.83 92.2144C107.983 93.3006 108.471 95.3527 107.723 96.8772C107.002 98.3475 105.966 98.91 104.406 98.2505C103.051 97.6764 101.582 97.688 100.203 97.6841C96.5394 97.6686 93.7623 95.438 90.5952 94.2238C87.9481 93.2075 85.4507 91.8071 82.8941 90.5618C82.5475 90.395 82.1536 90.0342 81.9566 90.5967C81.7715 91.1243 81.7242 91.7062 82.1102 92.2571C83.8277 94.701 85.8327 96.9238 87.5384 99.3871C89.0077 101.513 93.1213 109.863 94.5 112C94.9254 112.659 93.5278 118 93 118C88.4069 118.012 91.0931 120.508 86.5 120.5C82.748 120.5 76.2084 106.242 73.6095 102.483C72.8099 101.315 71.8487 101.528 71.2933 102.875C71.1042 103.336 71.0018 103.837 70.8245 104.306C70.1194 106.172 61.2808 125.64 59 125.5C55.2184 125.267 54.4983 120.5 50.5 120.5L55.1585 106.909Z" fill="#FDFEFF"/>
</g>
</g>
</g>
<path d="M57.3443 5.20603L16.993 28.5342C12.6653 31.0361 9.99999 35.6556 9.99999 40.6544V87.3456C9.99999 92.3444 12.6653 96.9639 16.993 99.4658L57.3443 122.794C61.6795 125.3 67.0232 125.3 71.3584 122.794L111.71 99.4658C116.037 96.9639 118.703 92.3444 118.703 87.3456V40.6544C118.703 35.6556 116.037 31.0361 111.71 28.5342L71.3584 5.20603C67.0232 2.69975 61.6795 2.69975 57.3443 5.20603Z" stroke="url(#paint2_linear_2378_5953)" stroke-width="2"/>
<defs>
<filter id="filter0_d_2378_5953" x="15" y="15" width="95" height="113.501" filterUnits="userSpaceOnUse" color-interpolation-filters="sRGB">
<feFlood flood-opacity="0" result="BackgroundImageFix"/>
<feColorMatrix in="SourceAlpha" type="matrix" values="0 0 0 0 0 0 0 0 0 0 0 0 0 0 0 0 0 0 127 0" result="hardAlpha"/>
<feOffset dy="3"/>
<feComposite in2="hardAlpha" operator="out"/>
<feColorMatrix type="matrix" values="0 0 0 0 0 0 0 0 0 0 0 0 0 0 0 0 0 0 0.3 0"/>
<feBlend mode="normal" in2="BackgroundImageFix" result="effect1_dropShadow_2378_5953"/>
<feBlend mode="normal" in="SourceGraphic" in2="effect1_dropShadow_2378_5953" result="shape"/>
</filter>
<filter id="filter1_d_2378_5953" x="66" y="15" width="43.5449" height="96.3679" filterUnits="userSpaceOnUse" color-interpolation-filters="sRGB">
<feFlood flood-opacity="0" result="BackgroundImageFix"/>
<feColorMatrix in="SourceAlpha" type="matrix" values="0 0 0 0 0 0 0 0 0 0 0 0 0 0 0 0 0 0 127 0" result="hardAlpha"/>
<feOffset dy="3"/>
<feComposite in2="hardAlpha" operator="out"/>
<feColorMatrix type="matrix" values="0 0 0 0 0 0 0 0 0 0 0 0 0 0 0 0 0 0 0.3 0"/>
<feBlend mode="normal" in2="BackgroundImageFix" result="effect1_dropShadow_2378_5953"/>
<feBlend mode="normal" in="SourceGraphic" in2="effect1_dropShadow_2378_5953" result="shape"/>
</filter>
<filter id="filter2_d_2378_5953" x="15" y="31" width="95" height="97.5007" filterUnits="userSpaceOnUse" color-interpolation-filters="sRGB">
<feFlood flood-opacity="0" result="BackgroundImageFix"/>
<feColorMatrix in="SourceAlpha" type="matrix" values="0 0 0 0 0 0 0 0 0 0 0 0 0 0 0 0 0 0 127 0" result="hardAlpha"/>
<feOffset dy="3"/>
<feComposite in2="hardAlpha" operator="out"/>
<feColorMatrix type="matrix" values="0 0 0 0 0 0 0 0 0 0 0 0 0 0 0 0 0 0 0.3 0"/>
<feBlend mode="normal" in2="BackgroundImageFix" result="effect1_dropShadow_2378_5953"/>
<feBlend mode="normal" in="SourceGraphic" in2="effect1_dropShadow_2378_5953" result="shape"/>
</filter>
<linearGradient id="paint0_linear_2378_5953" x1="64.3513" y1="0" x2="64.3513" y2="128" gradientUnits="userSpaceOnUse">
<stop stop-color="white" stop-opacity="0.3"/>
<stop offset="1" stop-color="white" stop-opacity="0"/>
</linearGradient>
<linearGradient id="paint1_linear_2378_5953" x1="64" y1="0" x2="64" y2="128" gradientUnits="userSpaceOnUse">
<stop stop-color="#362167"/>
<stop offset="1" stop-color="#8A2C6A"/>
</linearGradient>
<linearGradient id="paint2_linear_2378_5953" x1="64.3513" y1="0" x2="64.3513" y2="128" gradientUnits="userSpaceOnUse">
<stop stop-color="white" stop-opacity="0.3"/>
<stop offset="1" stop-color="white" stop-opacity="0"/>
</linearGradient>
</defs>
</svg>
