<svg width="128" height="128" viewBox="0 0 128 128" fill="none" xmlns="http://www.w3.org/2000/svg">
<mask id="mask0_2378_5953" style="mask-type:alpha" maskUnits="userSpaceOnUse" x="9" y="0" width="111" height="128">
<path d="M57.3443 5.20603L16.993 28.5342C12.6653 31.0361 9.99999 35.6556 9.99999 40.6544V87.3456C9.99999 92.3444 12.6653 96.9639 16.993 99.4658L57.3443 122.794C61.6795 125.3 67.0232 125.3 71.3584 122.794L111.71 99.4658C116.037 96.9639 118.703 92.3444 118.703 87.3456V40.6544C118.703 35.6556 116.037 31.0361 111.71 28.5342L71.3584 5.20603C67.0232 2.69975 61.6795 2.69975 57.3443 5.20603Z" fill="#D9D9D9" stroke="url(#paint0_linear_2378_5953)" stroke-width="2"/>
</mask>
<g mask="url(#mask0_2378_5953)">
<rect width="128" height="128" fill="url(#paint1_linear_2378_5953)"/>
<g filter="url(#filter0_d_2378_5953)">
<path d="M71.6193 90.083C72.4342 90.2532 73.2096 90.4211 73.9877 90.5766C75.3313 90.8459 76.6588 91.1989 78.0177 91.3848C79.4651 91.5825 80.8658 91.4238 82.1555 90.6674C82.6088 90.4016 82.9836 90.0456 83.3211 89.6431C83.6485 89.2539 83.6983 88.8409 83.5185 88.3745C83.2424 87.6573 82.829 87.0151 82.4345 86.3631C82.1021 85.8148 81.7629 85.2716 81.5011 84.6831C81.3877 84.4284 81.4215 84.2348 81.6104 84.0223C82.305 83.2403 82.9083 82.3976 83.2496 81.3932C83.8774 79.5472 83.3474 77.9702 82.165 76.5213C81.5985 75.8267 80.907 75.3592 80.0574 75.1015C79.6029 74.9637 79.1568 74.7984 78.7004 74.6664C78.5071 74.6105 78.4323 74.5126 78.4246 74.3177C78.3699 72.9125 78.2617 71.5119 77.9863 70.1302C77.9351 69.8743 78.0944 69.894 78.2623 69.908C79.1441 69.9789 80.0241 70.0827 80.9072 70.1081C82.9203 70.1654 84.6491 69.4553 86.1035 68.0669C86.5278 67.6622 86.9422 67.2479 87.3651 66.8416C87.6621 66.5563 87.6807 66.5626 87.9441 66.8947C88.5351 67.6391 89.1212 68.3853 89.8264 69.0311C93.4834 72.3815 99.5359 70.9702 101.311 66.1502C101.652 65.225 101.784 64.2624 101.736 63.2797C101.721 62.9584 101.807 62.7142 102.045 62.4865C102.844 61.7229 103.509 60.8603 103.922 59.82C105.161 56.6931 104.149 53.2383 101.411 51.2614C101.044 50.9961 100.689 50.7135 100.314 50.4599C100.093 50.3107 100.095 50.1909 100.242 49.9782C100.983 48.9032 101.728 47.826 102.144 46.5702C103.237 43.2789 102.875 40.147 100.823 37.3585C98.2524 33.869 94.7302 32.6329 90.4824 33.4366C90.0045 33.5269 89.5272 33.6268 89.0559 33.7465C88.7735 33.8185 88.6476 33.7722 88.5871 33.4523C88.369 32.3016 88.1781 31.1437 87.7578 30.0396C86.9111 27.8157 85.5578 25.9403 83.8636 24.2952C82.4661 22.9385 80.8977 21.8097 79.1678 20.9226C75.8688 19.2298 72.3978 18.3567 68.6646 18.9004C66.9261 19.1533 65.3334 19.7746 63.9692 20.918C63.6198 21.2111 63.3164 21.5466 63.0291 21.8977C62.9693 21.9705 62.8489 22.0391 62.913 22.1461C62.976 22.251 63.0969 22.1827 63.1886 22.1642C64.5105 21.8936 65.8416 21.8296 67.1821 21.963C69.6244 22.2065 71.8429 23.0504 73.8265 24.4912C76.4636 26.4066 78.1948 28.9558 79.0579 32.0978C79.2395 32.7586 79.3602 33.4314 79.4062 34.1303C78.1307 30.8691 76.0231 28.3228 72.9332 26.6643C69.8462 25.0076 66.5716 24.6013 63.1606 25.4294C61.1626 25.9141 59.3721 26.8299 57.7875 28.1465C56.1961 29.4682 54.9575 31.0614 54.0897 32.9413C53.2296 34.8056 52.8104 36.7667 52.8054 38.8242C52.6061 38.395 52.5425 37.9392 52.4777 37.488C52.1092 34.9312 52.4103 32.4499 53.4434 30.0809C54.8277 26.9066 57.1135 24.5939 60.254 23.1321C60.6586 22.9439 60.6617 22.9242 60.3367 22.5975C58.8096 21.0622 57.0094 20.0697 54.8148 19.9611C51.9367 19.8188 49.5643 20.8617 47.7621 23.1398C47.1619 23.8987 46.7539 24.7783 46.2446 25.5946C46.0414 25.9204 45.9978 25.924 45.6871 25.6882C44.6043 24.868 43.5454 24.0164 42.243 23.5394C38.9455 22.3322 35.2113 23.3485 33.0071 26.0721C30.264 29.4621 30.6295 34.3557 33.8433 37.2991C34.1284 37.56 34.3959 37.8406 34.6836 38.0984C34.866 38.2619 34.8817 38.4145 34.7465 38.617C34.4329 39.086 34.1145 39.5529 33.8303 40.04C31.5892 43.8823 31.5123 47.7814 33.5703 51.7087C33.8222 52.1897 33.8413 52.5785 33.6316 53.0685C32.4314 55.8748 32.3861 58.7284 33.4298 61.5791C34.5409 64.6135 36.6162 66.7856 39.5268 68.1667C39.7422 68.2688 39.9266 68.3687 39.9598 68.6525C40.2938 71.5035 41.7235 73.779 43.7214 75.7438C43.9554 75.9739 44.0301 76.1688 43.9479 76.4942C43.4276 78.5592 43.471 80.5934 44.3391 82.5703C44.9397 83.9368 45.8016 85.1287 46.8944 86.1281C47.4597 86.6455 48.1465 87.0309 48.7868 87.4637C49.2914 87.8044 49.298 87.7983 48.8115 88.1702C48.0996 88.7147 47.36 89.2213 46.6729 89.7982C44.1521 91.9164 43.1317 95.3278 44.1292 98.4795C44.9486 101.07 46.6574 102.84 49.2102 103.784C49.5521 103.91 49.8942 104.04 50.244 104.139C50.4914 104.209 50.6048 104.333 50.6269 104.596C50.6813 105.247 50.7719 105.894 50.9433 106.526C51.4437 108.369 52.5387 109.718 54.2489 110.58C55.2551 111.087 56.2777 111.562 57.2418 112.152C57.7625 112.47 58.2503 112.829 58.7283 113.206C58.9311 113.366 59.0821 113.558 59.2015 113.791C59.9132 115.178 60.635 116.559 61.3563 117.942C61.4048 118.036 61.4266 118.199 61.5472 118.185C61.6869 118.169 61.6779 117.995 61.7037 117.885C62.0182 116.539 62.4242 115.213 62.6359 113.844C62.6905 113.491 62.8489 113.318 63.1997 113.221C64.3603 112.903 65.462 112.447 66.3782 111.633C67.4255 110.704 68.2188 109.629 68.319 108.168C68.3513 107.693 68.2508 107.247 68.0379 106.821C67.4121 105.573 67.8827 104.328 69.1845 103.811C70.0009 103.487 70.8717 103.366 71.7208 103.162C72.862 102.889 73.9899 102.579 75.0761 102.123C76.638 101.466 77.3093 100.608 77.1874 98.4871C77.1007 96.9859 76.3923 95.7163 75.4296 94.5923C74.2369 93.1989 73.0258 91.8209 71.8242 90.4347C71.747 90.3461 71.6465 90.2685 71.6198 90.081L71.6193 90.083ZM73.3779 46.5908C73.3512 46.4295 73.4355 46.3203 73.5031 46.2106C74.6753 44.3063 76.4193 43.3139 78.6059 43.1142C81.195 42.8777 83.4417 43.692 85.3174 45.4916C85.5714 45.735 85.7787 45.8076 86.1283 45.6934C87.6814 45.1867 89.2493 45.1872 90.7848 45.7427C93.2321 46.6279 94.8952 48.3626 95.8054 50.7611C97.2159 54.4771 96.749 58.0135 94.4377 61.2475C93.0431 63.199 91.1342 64.4234 88.7218 64.7662C88.083 64.8567 87.4418 64.8702 86.7358 64.7425C86.8336 64.6967 86.8613 64.6783 86.8918 64.6709C89.1471 64.1332 90.846 62.8068 92.0281 60.8583C93.7778 57.9745 94.0753 54.9055 92.8666 51.7505C92.0171 49.5326 90.5042 47.9078 88.2447 47.0537C87.7374 46.8617 87.2105 46.7344 86.6661 46.6932C86.4333 46.6757 86.3792 46.761 86.5018 46.9595C86.5363 47.016 86.5708 47.0725 86.6037 47.1304C87.3293 48.4139 87.6352 49.782 87.3988 51.2503C87.3168 51.76 87.1538 52.2466 86.8902 52.789C86.2053 49.6985 84.3209 47.7003 81.5935 46.4539C78.8584 45.2037 76.1147 45.0958 73.3785 46.5912L73.3779 46.5908ZM66.6967 83.4417C66.9095 81.4926 66.5198 80.0683 65.9123 78.8626C64.6928 76.4417 62.7459 74.8298 60.2052 73.9568C56.8617 72.808 53.6355 73.0443 50.6691 75.0739C48.6509 76.4552 47.5036 78.3996 47.3299 80.8749C47.2855 81.5037 47.3514 82.1258 47.4565 82.8094C47.3011 82.6772 47.2535 82.5552 47.1984 82.4396C46.9895 81.9992 46.8107 81.5458 46.6814 81.076C45.8746 78.1405 46.4557 75.5025 48.4727 73.2228C49.7469 71.7823 51.3778 70.862 53.2376 70.4224C57.1747 69.4915 60.7565 70.3004 63.8701 72.875C66.2513 74.8448 67.5643 77.3815 67.4529 80.5477C67.4168 81.5643 67.1662 82.5334 66.6958 83.4419L66.6967 83.4417Z" fill="white"/>
</g>
</g>
<path d="M57.3443 5.20603L16.993 28.5342C12.6653 31.0361 9.99999 35.6556 9.99999 40.6544V87.3456C9.99999 92.3444 12.6653 96.9639 16.993 99.4658L57.3443 122.794C61.6795 125.3 67.0232 125.3 71.3584 122.794L111.71 99.4658C116.037 96.9639 118.703 92.3444 118.703 87.3456V40.6544C118.703 35.6556 116.037 31.0361 111.71 28.5342L71.3584 5.20603C67.0232 2.69975 61.6795 2.69975 57.3443 5.20603Z" stroke="url(#paint2_linear_2378_5953)" stroke-width="2"/>
<defs>
<filter id="filter0_d_2378_5953" x="31.1686" y="18.7394" width="73.2763" height="102.447" filterUnits="userSpaceOnUse" color-interpolation-filters="sRGB">
<feFlood flood-opacity="0" result="BackgroundImageFix"/>
<feColorMatrix in="SourceAlpha" type="matrix" values="0 0 0 0 0 0 0 0 0 0 0 0 0 0 0 0 0 0 127 0" result="hardAlpha"/>
<feOffset dy="3"/>
<feComposite in2="hardAlpha" operator="out"/>
<feColorMatrix type="matrix" values="0 0 0 0 0 0 0 0 0 0 0 0 0 0 0 0 0 0 0.3 0"/>
<feBlend mode="normal" in2="BackgroundImageFix" result="effect1_dropShadow_2378_5953"/>
<feBlend mode="normal" in="SourceGraphic" in2="effect1_dropShadow_2378_5953" result="shape"/>
</filter>
<linearGradient id="paint0_linear_2378_5953" x1="64.3513" y1="0" x2="64.3513" y2="128" gradientUnits="userSpaceOnUse">
<stop stop-color="white" stop-opacity="0.3"/>
<stop offset="1" stop-color="white" stop-opacity="0"/>
</linearGradient>
<linearGradient id="paint1_linear_2378_5953" x1="64" y1="0" x2="64" y2="128" gradientUnits="userSpaceOnUse">
<stop stop-color="#006198"/>
<stop offset="1" stop-color="#00A5FF"/>
</linearGradient>
<linearGradient id="paint2_linear_2378_5953" x1="64.3513" y1="0" x2="64.3513" y2="128" gradientUnits="userSpaceOnUse">
<stop stop-color="white" stop-opacity="0.3"/>
<stop offset="1" stop-color="white" stop-opacity="0"/>
</linearGradient>
</defs>
</svg>
