<svg width="128" height="128" viewBox="0 0 128 128" fill="none" xmlns="http://www.w3.org/2000/svg">
<mask id="mask0_2378_5953" style="mask-type:alpha" maskUnits="userSpaceOnUse" x="9" y="0" width="111" height="128">
<path d="M57.3443 5.20603L16.993 28.5342C12.6653 31.0361 9.99999 35.6556 9.99999 40.6544V87.3456C9.99999 92.3444 12.6653 96.9639 16.993 99.4658L57.3443 122.794C61.6795 125.3 67.0232 125.3 71.3584 122.794L111.71 99.4658C116.037 96.9639 118.703 92.3444 118.703 87.3456V40.6544C118.703 35.6556 116.037 31.0361 111.71 28.5342L71.3584 5.20603C67.0232 2.69975 61.6795 2.69975 57.3443 5.20603Z" fill="#D9D9D9" stroke="url(#paint0_linear_2378_5953)" stroke-width="2"/>
</mask>
<g mask="url(#mask0_2378_5953)">
<rect width="128" height="128" fill="url(#paint1_linear_2378_5953)"/>
<g filter="url(#filter0_d_2378_5953)">
<g filter="url(#filter1_d_2378_5953)">
<path fill-rule="evenodd" clip-rule="evenodd" d="M85.5529 21.1136C85.404 21.0782 85.2551 21.0427 85.1104 21V21.0054C85.0837 21.0699 85.057 21.1338 85.0303 21.1977C85.0036 21.2616 84.9769 21.3255 84.9501 21.3901C85.0159 21.4795 85.0783 21.5725 85.1408 21.6656C85.2739 21.8637 85.4071 22.0621 85.5724 22.2268C89.6161 26.2354 92.9279 30.7982 95.6976 35.7753C98.6115 41.0081 100.227 46.612 100.404 52.6061C100.532 56.9456 99.6531 61.1264 98.323 65.248C97.1238 68.9661 95.3611 72.3559 92.8024 75.2588C87.3966 81.39 80.4204 83.9997 72.4106 84.1261C72.2545 84.1278 72.0985 84.0985 71.8909 84.0595C71.7751 84.0378 71.6433 84.013 71.4865 83.9889C71.5874 83.8721 71.6676 83.7636 71.7378 83.6687C71.8664 83.4949 71.9613 83.3668 72.0874 83.3163C73.1397 82.8939 74.2054 82.5012 75.2764 82.1299C80.3937 80.3543 84.3732 77.1178 87.4233 72.6491C90.8207 67.672 92.4178 62.1138 92.6368 56.1412C92.6929 54.5996 92.4445 53.0258 92.1828 51.495C92.1323 51.1985 92.0832 50.9009 92.034 50.6028C91.7447 48.8504 91.4527 47.081 90.8661 45.4256C88.5211 38.802 84.4881 33.389 78.7939 29.2755C72.6563 24.8418 65.7682 22.5712 58.2551 22.3317C55.8781 22.2564 53.4716 22.52 51.1026 22.8241C49.0274 23.0904 46.9281 23.4455 44.941 24.0858C41.2606 25.2723 37.7644 26.9107 34.5007 29.0414C28.3951 33.0312 23.6277 38.2397 20.3292 44.7665C18.7374 47.9115 17.6103 51.2125 16.9452 54.7234C16.3683 57.7608 15.8502 60.7659 16.0398 63.8571C16.0599 64.1915 16.2232 64.5172 16.3869 64.8434C16.4629 64.9949 16.5389 65.1465 16.6007 65.2991C17.3013 63.8576 17.802 62.4942 18.29 61.1652C18.4551 60.7158 18.6187 60.2703 18.7881 59.827C20.4948 55.3691 22.4766 51.0269 25.3183 47.1824C31.1354 39.3158 38.5764 34.0293 48.4024 32.3694C53.5491 31.5004 58.5195 31.9927 63.3057 33.771C69.2456 35.9798 73.7754 40.0368 76.8655 45.6489C76.9445 45.7935 76.9475 45.9806 76.9507 46.1792C76.9522 46.2762 76.9538 46.3759 76.9643 46.4748C76.8734 46.4623 76.7996 46.4579 76.7406 46.4543C76.6471 46.4487 76.5905 46.4453 76.561 46.4156C71.7242 41.3686 65.8216 38.6863 58.8694 38.4173C53.8536 38.2236 49.0487 39.1221 44.4602 41.2663C40.1495 43.2787 36.5065 46.1197 33.5071 49.792C28.9213 55.4041 26.3973 61.8636 25.9433 69.1221C25.6362 74.0535 26.5309 78.7831 28.1735 83.4374C29.832 88.1428 32.1797 92.4043 35.3393 96.2327C39.0865 100.774 43.5922 104.314 48.8644 106.924C53.031 108.988 57.4191 110.368 61.9943 110.747C66.6602 111.134 71.401 111.25 75.9735 109.8C78.8232 108.896 81.673 107.965 84.44 106.843C85.3951 106.457 86.2629 105.855 87.1305 105.254C87.5246 104.98 87.9186 104.707 88.3207 104.454L88.1445 103.962C87.9027 103.981 87.6605 103.996 87.4181 104.012C86.8946 104.045 86.3705 104.079 85.8502 104.145C84.6324 104.301 83.4157 104.473 82.199 104.644C79.5757 105.014 76.9522 105.385 74.3175 105.598C72.4856 105.747 70.6109 105.509 68.7623 105.274C68.5437 105.246 68.3255 105.219 68.1078 105.191L68.0944 105.19C65.8846 104.913 63.6485 104.633 61.5082 104.043C54.4732 102.098 48.6534 98.237 44.0276 92.52C41.0522 88.8423 39.0758 84.6965 37.9995 80.1256C37.1475 76.5125 37.0246 72.8294 37.9674 69.2109C38.6725 66.5017 39.6207 63.8598 41.541 61.6806C41.5181 62.0104 41.4405 62.3348 41.3638 62.6551C41.2703 63.0456 41.1782 63.4301 41.1885 63.8114C41.204 64.3764 41.2169 64.9421 41.2299 65.5078C41.2884 68.0587 41.3469 70.6132 41.6398 73.1388C42.174 77.7473 44.2946 81.7775 47.0643 85.3771C53.2713 93.4401 61.6978 97.0963 71.6841 97.1285C76.732 97.1447 81.6276 95.9717 86.1948 93.7844C96.1463 89.0199 102.575 81.0914 106.055 70.6798C107.553 66.1977 108.045 61.5407 107.997 56.8003C107.935 50.548 106.493 44.64 103.689 39.1194C99.7947 31.4573 93.999 25.5763 86.4966 21.4278C86.2115 21.2703 85.8821 21.1919 85.5529 21.1136ZM66.7334 46H63.2631V53.7566L59.2795 49.7706L56.8223 52.2278L63.2631 58.6685V61.2627H60.6681L54.2278 54.8223L51.7706 57.2795L55.7563 61.2627H48V64.733H55.7619L51.7706 68.7242L54.2278 71.1779L60.6727 64.733H63.2631V67.3317L56.8223 73.7724L59.2795 76.2295L63.2631 72.2435V80H66.7334V72.2387L70.7242 76.2295L73.1779 73.7724L66.7334 67.3279V64.733H69.3636L75.8085 71.1779L78.2657 68.7242L74.2744 64.733H82V61.2627H74.28L78.2657 57.2795L75.8085 54.8223L69.3682 61.2627H66.7334V58.6723L73.1779 52.2278L70.7242 49.7706L66.7334 53.7615V46Z" fill="white"/>
</g>
</g>
</g>
<path d="M57.3443 5.20603L16.993 28.5342C12.6653 31.0361 9.99999 35.6556 9.99999 40.6544V87.3456C9.99999 92.3444 12.6653 96.9639 16.993 99.4658L57.3443 122.794C61.6795 125.3 67.0232 125.3 71.3584 122.794L111.71 99.4658C116.037 96.9639 118.703 92.3444 118.703 87.3456V40.6544C118.703 35.6556 116.037 31.0361 111.71 28.5342L71.3584 5.20603C67.0232 2.69975 61.6795 2.69975 57.3443 5.20603Z" stroke="url(#paint2_linear_2378_5953)" stroke-width="2"/>
<defs>
<filter id="filter0_d_2378_5953" x="16" y="21" width="92" height="93" filterUnits="userSpaceOnUse" color-interpolation-filters="sRGB">
<feFlood flood-opacity="0" result="BackgroundImageFix"/>
<feColorMatrix in="SourceAlpha" type="matrix" values="0 0 0 0 0 0 0 0 0 0 0 0 0 0 0 0 0 0 127 0" result="hardAlpha"/>
<feOffset dy="3"/>
<feComposite in2="hardAlpha" operator="out"/>
<feColorMatrix type="matrix" values="0 0 0 0 0 0 0 0 0 0 0 0 0 0 0 0 0 0 0.3 0"/>
<feBlend mode="normal" in2="BackgroundImageFix" result="effect1_dropShadow_2378_5953"/>
<feBlend mode="normal" in="SourceGraphic" in2="effect1_dropShadow_2378_5953" result="shape"/>
</filter>
<filter id="filter1_d_2378_5953" x="16" y="21" width="92" height="93" filterUnits="userSpaceOnUse" color-interpolation-filters="sRGB">
<feFlood flood-opacity="0" result="BackgroundImageFix"/>
<feColorMatrix in="SourceAlpha" type="matrix" values="0 0 0 0 0 0 0 0 0 0 0 0 0 0 0 0 0 0 127 0" result="hardAlpha"/>
<feOffset dy="3"/>
<feComposite in2="hardAlpha" operator="out"/>
<feColorMatrix type="matrix" values="0 0 0 0 0 0 0 0 0 0 0 0 0 0 0 0 0 0 0.3 0"/>
<feBlend mode="normal" in2="BackgroundImageFix" result="effect1_dropShadow_2378_5953"/>
<feBlend mode="normal" in="SourceGraphic" in2="effect1_dropShadow_2378_5953" result="shape"/>
</filter>
<linearGradient id="paint0_linear_2378_5953" x1="64.3513" y1="0" x2="64.3513" y2="128" gradientUnits="userSpaceOnUse">
<stop stop-color="white" stop-opacity="0.3"/>
<stop offset="1" stop-color="white" stop-opacity="0"/>
</linearGradient>
<linearGradient id="paint1_linear_2378_5953" x1="64" y1="0" x2="64" y2="128" gradientUnits="userSpaceOnUse">
<stop stop-color="#362167"/>
<stop offset="1" stop-color="#8A2C6A"/>
</linearGradient>
<linearGradient id="paint2_linear_2378_5953" x1="64.3513" y1="0" x2="64.3513" y2="128" gradientUnits="userSpaceOnUse">
<stop stop-color="white" stop-opacity="0.3"/>
<stop offset="1" stop-color="white" stop-opacity="0"/>
</linearGradient>
</defs>
</svg>
