<svg width="128" height="128" viewBox="0 0 128 128" fill="none" xmlns="http://www.w3.org/2000/svg">
<mask id="mask0_2378_5953" style="mask-type:alpha" maskUnits="userSpaceOnUse" x="9" y="0" width="111" height="128">
<path d="M57.3443 5.20603L16.993 28.5342C12.6653 31.0361 9.99999 35.6556 9.99999 40.6544V87.3456C9.99999 92.3444 12.6653 96.9639 16.993 99.4658L57.3443 122.794C61.6795 125.3 67.0232 125.3 71.3584 122.794L111.71 99.4658C116.037 96.9639 118.703 92.3444 118.703 87.3456V40.6544C118.703 35.6556 116.037 31.0361 111.71 28.5342L71.3584 5.20603C67.0232 2.69975 61.6795 2.69975 57.3443 5.20603Z" fill="#D9D9D9" stroke="url(#paint0_linear_2378_5953)" stroke-width="2"/>
</mask>
<g mask="url(#mask0_2378_5953)">
<rect width="128" height="128" fill="url(#paint1_linear_2378_5953)"/>
<g filter="url(#filter0_d_2378_5953)">
<mask id="path-2-inside-1_2378_5953" fill="white">
<path d="M40.5461 21.6782L64.1683 22.2756L76.0258 55.088L61.583 54.3255L74.2403 79.4724L42.2173 47.4687L55.1746 47.3871L40.5461 21.6782Z"/>
</mask>
<path d="M40.5461 21.6782L64.1683 22.2756L76.0258 55.088L61.583 54.3255L74.2403 79.4724L42.2173 47.4687L55.1746 47.3871L40.5461 21.6782Z" fill="white"/>
<path d="M40.5461 21.6782L40.7737 12.6811L24.8426 12.2782L32.7238 26.1292L40.5461 21.6782ZM64.1683 22.2756L72.6325 19.2168L70.5428 13.4339L64.3958 13.2785L64.1683 22.2756ZM76.0258 55.088L75.5513 64.0755L89.1018 64.7909L84.4901 52.0293L76.0258 55.088ZM61.583 54.3255L62.0575 45.338L46.5721 44.5204L53.5439 58.3718L61.583 54.3255ZM74.2403 79.4724L67.8783 85.8383L82.2794 75.426L74.2403 79.4724ZM42.2173 47.4687L42.1606 38.4689L20.616 38.6046L35.8552 53.8346L42.2173 47.4687ZM55.1746 47.3871L55.2313 56.387L70.5954 56.2902L62.997 42.9362L55.1746 47.3871ZM40.3186 30.6753L63.9407 31.2727L64.3958 13.2785L40.7737 12.6811L40.3186 30.6753ZM55.704 25.3343L67.5615 58.1468L84.4901 52.0293L72.6325 19.2168L55.704 25.3343ZM76.5003 46.1005L62.0575 45.338L61.1085 63.313L75.5513 64.0755L76.5003 46.1005ZM53.5439 58.3718L66.2012 83.5187L82.2794 75.426L69.6221 50.2791L53.5439 58.3718ZM42.2739 56.4686L55.2313 56.387L55.1179 38.3873L42.1606 38.4689L42.2739 56.4686ZM62.997 42.9362L48.3685 17.2273L32.7238 26.1292L47.3523 51.8381L62.997 42.9362ZM80.6024 73.1065L48.5793 41.1028L35.8552 53.8346L67.8783 85.8383L80.6024 73.1065Z" fill="white" mask="url(#path-2-inside-1_2378_5953)"/>
<path fill-rule="evenodd" clip-rule="evenodd" d="M36.3629 78.5516L36.3816 78.5772L36.381 78.5779L36.3205 78.6556C36.2978 78.6461 36.2749 78.637 36.252 78.6279C36.204 78.6089 36.156 78.5898 36.11 78.5666C33.7318 77.3635 31.3855 76.1047 29.1618 74.6327C28.483 74.1836 27.8226 73.709 27.2201 73.1603C26.8876 72.8577 26.6016 72.5201 26.3575 72.1416C25.9447 71.5018 25.523 70.8679 25.1014 70.2339L25.1013 70.2338L25.1013 70.2338L25.1013 70.2338L25.1012 70.2337L25.1007 70.2329L25.1002 70.2321C24.9946 70.0733 24.8889 69.9145 24.7835 69.7556L24.2923 69.0154C23.4585 67.7587 22.6247 66.5019 21.7856 65.2486C21.487 64.8023 21.2864 64.3289 21.2267 63.7921C21.2065 63.6085 21.1702 63.4267 21.134 63.2449C21.1029 63.0892 21.0719 62.9334 21.0509 62.7764C21.0045 62.4288 20.9672 62.0803 20.9299 61.7317C20.9112 61.5577 20.8926 61.3837 20.8728 61.2098C20.7893 60.4758 21.5705 59.5904 22.4484 59.6117C22.8739 59.622 23.2458 59.7454 23.597 59.9641C24.0699 60.2589 24.4507 60.6508 24.788 61.0865C25.2248 61.6504 25.5812 62.2644 25.8684 62.9137C26.1795 63.6168 26.4863 64.3235 26.7472 65.0457C27.1008 66.0246 27.5807 66.9312 28.1686 67.7877C30.6838 71.4513 33.337 75.0115 36.2385 78.3855C36.2744 78.4273 36.3064 78.4722 36.3383 78.5171L36.3629 78.5516ZM60.8603 131.096L60.8603 131.096C60.8643 131.154 60.8682 131.211 60.8712 131.269V131.269H41.6662C41.6791 131.222 41.6907 131.174 41.7023 131.126C41.7281 131.019 41.754 130.912 41.7941 130.811C41.8926 130.561 41.9949 130.314 42.0972 130.066L42.0973 130.066L42.0973 130.066L42.0974 130.066L42.0974 130.066C42.25 129.696 42.4025 129.327 42.5426 128.953C43.8269 125.52 44.8877 122.017 45.8261 118.478C46.4587 116.092 47.0285 113.692 47.3598 111.242C47.5501 109.835 47.4721 108.468 46.9637 107.122C46.4376 105.73 45.7454 104.431 44.9036 103.208C43.5263 101.205 41.8803 99.4431 39.9925 97.9087C37.8091 96.1341 35.9711 94.0699 34.5559 91.6417C34.4028 91.3793 34.2495 91.1169 34.0962 90.8546C33.5237 89.8748 32.951 88.8949 32.3915 87.9079C31.8097 86.8819 31.1475 85.9136 30.3932 85.0061C29.4441 83.8643 28.4032 82.8097 27.3088 81.8065C26.9672 81.4933 26.6239 81.182 26.2806 80.8707C25.6003 80.254 24.92 79.6372 24.2537 79.0058C23.6352 78.4197 23.0461 77.8005 22.4741 77.1695C21.885 76.5196 21.4252 75.7828 21.0778 74.9728C20.8227 74.3782 20.5406 73.7915 20.2253 73.2264C19.4062 71.758 18.5681 70.3002 17.7263 68.8446C17.3438 68.1831 16.955 67.5252 16.5662 66.8673C16.2746 66.3738 15.983 65.8804 15.6941 65.3855C15.4282 64.9297 15.186 64.4582 15.075 63.9396C15.0165 63.6661 15.004 63.3802 14.9988 63.0992C14.9936 62.82 15.1331 62.5985 15.3512 62.4235C15.8133 62.0522 16.3312 61.8623 16.9335 61.9003C17.4149 61.9307 17.8453 62.1008 18.2524 62.3381C18.7296 62.6161 19.152 62.9655 19.5472 63.3486C20.3232 64.1015 20.9854 64.9477 21.6106 65.8239C22.4949 67.0632 23.284 68.3621 24.0619 69.6686C24.3591 70.1679 24.6583 70.6661 24.9576 71.1643L24.9582 71.1653L24.9585 71.1658L24.959 71.1666C25.1706 71.5189 25.3822 71.8711 25.5931 72.2237C26.0553 72.9967 26.6429 73.6633 27.3195 74.2579C28.346 75.1596 29.4719 75.9244 30.641 76.6274C33.1904 78.1605 35.8745 79.4214 38.6625 80.4602C39.812 80.8883 40.8006 81.5333 41.6665 82.3837C42.4679 83.1707 43.1412 84.0578 43.7456 84.9988C44.3274 85.9042 44.8284 86.8528 45.2909 87.8223C45.304 87.8497 45.3155 87.8784 45.3271 87.9074L45.3271 87.9074C45.3696 88.0136 45.4132 88.1223 45.5398 88.1774C45.5435 88.1633 45.5475 88.1515 45.551 88.1414C45.5569 88.1239 45.5611 88.1116 45.5588 88.1006C45.5296 87.9608 45.4982 87.8214 45.4668 87.682L45.4667 87.6817L45.4545 87.6275C45.0911 86.0191 44.524 84.4966 43.6657 83.0722C42.8886 81.7826 42.1557 80.4663 41.4231 79.1505C41.2884 78.9085 41.1537 78.6666 41.0187 78.4249C40.3075 77.1512 39.6288 75.86 39.0599 74.5161C38.8788 74.0883 38.6992 73.6554 38.5732 73.2097C38.3652 72.4753 38.4677 71.7625 38.8727 71.1093C39.3092 70.4053 40.0558 70.1058 40.8682 70.2671C41.4417 70.381 41.9379 70.6484 42.4037 70.982C43.0531 71.4469 43.6049 72.0144 44.1181 72.6196C44.7626 73.3795 45.3178 74.2029 45.8607 75.036C46.8126 76.4962 47.7672 77.9555 48.7482 79.3965C49.5245 80.5368 50.3555 81.64 51.2976 82.6529C51.6283 83.0084 51.9748 83.3621 52.3655 83.6471C54.2276 85.0058 55.9552 86.5122 57.521 88.1984C59.1323 89.9339 60.5094 91.8319 61.516 93.9812C63.053 97.2622 63.4761 100.67 62.7175 104.218C62.4844 105.309 62.1507 106.369 61.7668 107.414C61.5558 107.988 61.4197 108.578 61.3723 109.185C61.3558 109.396 61.3387 109.607 61.3217 109.818L61.3215 109.819L61.3215 109.819C61.2473 110.738 61.1731 111.656 61.1435 112.576C61.0428 115.711 60.9508 118.847 60.8991 121.983C60.8648 124.063 60.8589 126.143 60.853 128.223C60.8506 129.057 60.8482 129.891 60.844 130.726C60.8434 130.849 60.8518 130.972 60.8603 131.096ZM40.8888 80.4417L40.8187 80.3633C40.7486 80.2849 40.6784 80.2064 40.6077 80.1284C38.8581 78.1964 37.3395 76.1009 36.0906 73.8164C35.4568 72.6573 34.9539 71.4481 34.716 70.1401C34.6146 69.5826 34.4879 69.0293 34.3612 68.4766L34.3352 68.3627C33.9201 66.5504 33.4362 64.755 32.8529 62.9895C32.5042 61.9337 31.7511 61.2152 30.7206 60.7943C30.3349 60.637 29.9214 60.626 29.5201 60.7299C29.3289 60.7795 29.138 60.8755 28.9793 60.9934C28.6599 61.23 28.5147 61.5442 28.6407 61.9501C28.6819 62.0829 28.7174 62.2175 28.7529 62.352L28.7529 62.3521C28.7999 62.5303 28.847 62.7085 28.9071 62.8823C29.217 63.7775 29.3205 64.7106 29.4237 65.6416V65.6416L29.4237 65.6416L29.4277 65.6772C29.5213 66.5206 29.595 67.3683 29.5317 68.219C29.5161 68.4289 29.562 68.6173 29.6706 68.7972C29.7334 68.9016 29.7933 69.0078 29.8532 69.114C29.9425 69.2723 30.0318 69.4307 30.1309 69.5829C31.9561 72.3933 34.0125 75.025 36.3279 77.4554C37.4896 78.6746 38.8783 79.5834 40.3762 80.3387C40.472 80.387 40.5739 80.424 40.6757 80.461L40.6757 80.461C40.723 80.4782 40.7703 80.4954 40.817 80.5137L40.8895 80.442L40.8888 80.4417ZM68.1383 131.096C68.1344 131.154 68.1304 131.211 68.1274 131.269V131.269H87.3324C87.3264 131.247 87.3208 131.225 87.3152 131.203C87.3088 131.178 87.3026 131.152 87.2964 131.126C87.2705 131.019 87.2447 130.912 87.2045 130.811C87.1059 130.561 87.0035 130.313 86.9012 130.065C86.7486 129.696 86.5961 129.327 86.4561 128.953C85.1717 125.52 84.1109 122.017 83.1725 118.478C82.5399 116.092 81.9701 113.692 81.6388 111.242C81.4486 109.835 81.5266 108.468 82.0349 107.122C82.561 105.73 83.2532 104.431 84.095 103.208C85.4724 101.205 87.1183 99.4431 89.0061 97.9087C91.1895 96.1341 93.0275 94.0699 94.4428 91.6417C94.5959 91.3792 94.7492 91.1168 94.9025 90.8544C95.4751 89.8747 96.0477 88.8948 96.6071 87.9079C97.1889 86.8819 97.8511 85.9136 98.6054 85.0061C99.5546 83.8643 100.595 82.8097 101.69 81.8065C102.031 81.4933 102.375 81.182 102.718 80.8707C103.398 80.2539 104.079 79.6372 104.745 79.0058C105.363 78.4197 105.953 77.8005 106.525 77.1695C107.114 76.5196 107.573 75.7828 107.921 74.9728C108.176 74.3782 108.458 73.7915 108.773 73.2264C109.592 71.758 110.431 70.3002 111.272 68.8446C111.655 68.1831 112.044 67.5252 112.432 66.8674C112.724 66.3739 113.016 65.8805 113.305 65.3855C113.57 64.9297 113.813 64.4582 113.924 63.9396C113.982 63.6661 113.995 63.3802 114 63.0992C114.005 62.82 113.866 62.5985 113.647 62.4235C113.185 62.0522 112.667 61.8623 112.065 61.9003C111.584 61.9307 111.153 62.1008 110.746 62.3381C110.269 62.6161 109.847 62.9655 109.451 63.3486C108.675 64.1015 108.013 64.9477 107.388 65.8239C106.504 67.0632 105.715 68.3621 104.937 69.6686C104.641 70.1659 104.343 70.662 104.045 71.1582L104.043 71.1616L104.04 71.1662L104.038 71.1694C103.827 71.5207 103.616 71.872 103.406 72.2237C102.943 72.9967 102.356 73.6633 101.679 74.2579C100.653 75.1596 99.5267 75.9244 98.3577 76.6274C95.8082 78.1605 93.1241 79.4214 90.3361 80.4602C89.1866 80.8883 88.198 81.5333 87.3321 82.3837C86.5307 83.1707 85.8575 84.0578 85.2531 84.9988C84.6713 85.9042 84.1703 86.8528 83.7078 87.8223C83.6947 87.8496 83.6832 87.8783 83.6716 87.9072L83.6715 87.9074C83.629 88.0136 83.5854 88.1223 83.4588 88.1774C83.4551 88.1633 83.4511 88.1515 83.4477 88.1414C83.4417 88.1239 83.4375 88.1116 83.4398 88.1006C83.4689 87.9613 83.5002 87.8224 83.5315 87.6834L83.5318 87.6825L83.532 87.6816L83.5441 87.6275C83.9075 86.0191 84.4746 84.4966 85.3329 83.0722C86.11 81.7826 86.8429 80.4664 87.5755 79.1506C87.7102 78.9086 87.8449 78.6667 87.9799 78.4249C88.6911 77.1512 89.3698 75.86 89.9388 74.5161C90.1198 74.0883 90.2994 73.6554 90.4254 73.2097C90.6334 72.4753 90.5309 71.7625 90.126 71.1093C89.6895 70.4053 88.9428 70.1058 88.1304 70.2671C87.5569 70.381 87.0608 70.6484 86.5949 70.982C85.9456 71.4469 85.3938 72.0144 84.8805 72.6196C84.236 73.3795 83.6809 74.2029 83.1379 75.036C82.186 76.4962 81.2314 77.9555 80.2505 79.3965C79.4742 80.5368 78.6431 81.64 77.701 82.6529C77.3703 83.0084 77.0238 83.3621 76.6332 83.6471C74.771 85.0058 73.0434 86.5122 71.4777 88.1984C69.8663 89.9339 68.4892 91.8319 67.4826 93.9812C65.9456 97.2622 65.5226 100.67 66.2811 104.218C66.5142 105.309 66.8479 106.369 67.2318 107.414C67.4429 107.988 67.579 108.578 67.6264 109.185C67.6429 109.396 67.6599 109.607 67.677 109.818L67.6771 109.819L67.6771 109.819C67.7513 110.738 67.8256 111.656 67.8552 112.576C67.9558 115.711 68.0479 118.847 68.0996 121.983C68.1338 124.063 68.1398 126.143 68.1457 128.223C68.148 129.057 68.1504 129.891 68.1546 130.726C68.1552 130.849 68.1468 130.972 68.1383 131.096ZM92.6171 78.5772C92.6318 78.5574 92.6461 78.5373 92.6604 78.5172C92.6924 78.4722 92.7244 78.4273 92.7603 78.3855C95.6618 75.0115 98.315 71.4513 100.83 67.7877C101.418 66.9312 101.898 66.0246 102.252 65.0457C102.512 64.3235 102.819 63.6168 103.13 62.9137C103.418 62.2644 103.774 61.6504 104.211 61.0865C104.548 60.6508 104.929 60.2589 105.402 59.9641C105.753 59.7454 106.125 59.622 106.55 59.6117C107.428 59.5904 108.209 60.4758 108.126 61.2098C108.106 61.3835 108.088 61.5572 108.069 61.7309L108.069 61.7315L108.069 61.7318C108.032 62.0804 107.994 62.4288 107.948 62.7764C107.927 62.9333 107.896 63.0889 107.865 63.2445L107.865 63.2449L107.865 63.2449C107.829 63.4267 107.792 63.6085 107.772 63.7921C107.712 64.3289 107.512 64.8023 107.213 65.2486C106.374 66.5016 105.541 67.758 104.707 69.0144L104.215 69.7556C104.109 69.915 104.004 70.0743 103.898 70.2337C103.476 70.8677 103.054 71.5017 102.641 72.1416C102.397 72.5201 102.111 72.8577 101.779 73.1603C101.176 73.709 100.516 74.1836 99.837 74.6327C97.6133 76.1047 95.2669 77.3635 92.8887 78.5666C92.8428 78.5898 92.7947 78.6089 92.7468 78.6279C92.7238 78.637 92.7009 78.6461 92.6783 78.6556L92.6177 78.5779L92.6171 78.5772ZM88.1801 80.3633C88.1567 80.3894 88.1333 80.4156 88.1099 80.4417L88.1093 80.442L88.1818 80.5137C88.2285 80.4954 88.2758 80.4782 88.3231 80.461C88.4249 80.424 88.5267 80.387 88.6226 80.3387C90.1204 79.5834 91.5091 78.6746 92.6708 77.4554C94.9863 75.025 97.0427 72.3933 98.8679 69.5829C98.9669 69.4306 99.0562 69.2723 99.1456 69.1139C99.2055 69.0077 99.2653 68.9016 99.3282 68.7972C99.4368 68.6173 99.4827 68.4289 99.4671 68.219C99.4037 67.3683 99.4775 66.5206 99.5711 65.6772L99.575 65.6417C99.6783 64.7107 99.7818 63.7775 100.092 62.8823C100.152 62.7085 100.199 62.5303 100.246 62.3521C100.281 62.2175 100.317 62.0829 100.358 61.9501C100.484 61.5442 100.339 61.23 100.019 60.9934C99.8607 60.8755 99.6699 60.7795 99.4787 60.7299C99.0774 60.626 98.6638 60.637 98.2781 60.7943C97.2476 61.2152 96.4946 61.9337 96.1459 62.9895C95.5626 64.755 95.0787 66.5504 94.6636 68.3627L94.6376 68.4763C94.5109 69.0291 94.3841 69.5825 94.2828 70.1401C94.0448 71.4481 93.542 72.6573 92.9082 73.8164C91.6593 76.1009 90.1406 78.1964 88.391 80.1284C88.3204 80.2064 88.2502 80.2848 88.1801 80.3633Z" fill="white"/>
</g>
</g>
<path d="M57.3443 5.20603L16.993 28.5342C12.6653 31.0361 9.99999 35.6556 9.99999 40.6544V87.3456C9.99999 92.3444 12.6653 96.9639 16.993 99.4658L57.3443 122.794C61.6795 125.3 67.0232 125.3 71.3584 122.794L111.71 99.4658C116.037 96.9639 118.703 92.3444 118.703 87.3456V40.6544C118.703 35.6556 116.037 31.0361 111.71 28.5342L71.3584 5.20603C67.0232 2.69975 61.6795 2.69975 57.3443 5.20603Z" stroke="url(#paint2_linear_2378_5953)" stroke-width="2"/>
<defs>
<filter id="filter0_d_2378_5953" x="14.9987" y="21.6782" width="99.0013" height="112.591" filterUnits="userSpaceOnUse" color-interpolation-filters="sRGB">
<feFlood flood-opacity="0" result="BackgroundImageFix"/>
<feColorMatrix in="SourceAlpha" type="matrix" values="0 0 0 0 0 0 0 0 0 0 0 0 0 0 0 0 0 0 127 0" result="hardAlpha"/>
<feOffset dy="3"/>
<feComposite in2="hardAlpha" operator="out"/>
<feColorMatrix type="matrix" values="0 0 0 0 0 0 0 0 0 0 0 0 0 0 0 0 0 0 0.3 0"/>
<feBlend mode="normal" in2="BackgroundImageFix" result="effect1_dropShadow_2378_5953"/>
<feBlend mode="normal" in="SourceGraphic" in2="effect1_dropShadow_2378_5953" result="shape"/>
</filter>
<linearGradient id="paint0_linear_2378_5953" x1="64.3513" y1="0" x2="64.3513" y2="128" gradientUnits="userSpaceOnUse">
<stop stop-color="white" stop-opacity="0.3"/>
<stop offset="1" stop-color="white" stop-opacity="0"/>
</linearGradient>
<linearGradient id="paint1_linear_2378_5953" x1="64" y1="0" x2="64" y2="128" gradientUnits="userSpaceOnUse">
<stop stop-color="#006198"/>
<stop offset="1" stop-color="#00A5FF"/>
</linearGradient>
<linearGradient id="paint2_linear_2378_5953" x1="64.3513" y1="0" x2="64.3513" y2="128" gradientUnits="userSpaceOnUse">
<stop stop-color="white" stop-opacity="0.3"/>
<stop offset="1" stop-color="white" stop-opacity="0"/>
</linearGradient>
</defs>
</svg>
