<svg width="128" height="128" viewBox="0 0 128 128" fill="none" xmlns="http://www.w3.org/2000/svg">
<mask id="mask0_2378_5953" style="mask-type:alpha" maskUnits="userSpaceOnUse" x="9" y="0" width="111" height="128">
<path d="M57.3443 5.20603L16.993 28.5342C12.6653 31.0361 9.99999 35.6556 9.99999 40.6544V87.3456C9.99999 92.3444 12.6653 96.9639 16.993 99.4658L57.3443 122.794C61.6795 125.3 67.0232 125.3 71.3584 122.794L111.71 99.4658C116.037 96.9639 118.703 92.3444 118.703 87.3456V40.6544C118.703 35.6556 116.037 31.0361 111.71 28.5342L71.3584 5.20603C67.0232 2.69975 61.6795 2.69975 57.3443 5.20603Z" fill="#D9D9D9" stroke="url(#paint0_linear_2378_5953)" stroke-width="2"/>
</mask>
<g mask="url(#mask0_2378_5953)">
<rect width="128" height="128" fill="url(#paint1_linear_2378_5953)"/>
<g filter="url(#filter0_d_2378_5953)">
<g opacity="0.4" filter="url(#filter1_d_2378_5953)">
<path fill-rule="evenodd" clip-rule="evenodd" d="M69.2638 16.6074C70.6987 15.779 72.5335 16.2707 73.3619 17.7055C74.1903 19.1404 73.6987 20.9752 72.2638 21.8036L41.7666 39.4112L61.0704 39.4112C62.7273 39.4112 64.0704 40.7543 64.0704 42.4112C64.0704 44.068 62.7273 45.4112 61.0704 45.4112L38.4568 45.4112C39.5875 41.524 37.9735 37.2239 34.311 35.1094C30.0064 32.6241 24.5021 34.099 22.0168 38.4036C19.5315 42.7083 21.0064 48.2126 25.311 50.6979C29.4192 53.0697 34.62 51.8346 37.2465 47.9752L48.4185 67.3258C49.2469 68.7607 48.7553 70.5954 47.3204 71.4239C45.8856 72.2523 44.0508 71.7607 43.2224 70.3258L33.5705 53.6082L33.5705 88.8233C33.5705 90.4801 32.2274 91.8233 30.5705 91.8233C28.9136 91.8233 27.5705 90.4801 27.5705 88.8233L27.5705 53.6075L17.9186 70.3251C17.0902 71.7599 15.2554 72.2516 13.8205 71.4231C12.3857 70.5947 11.894 68.7599 12.7225 67.3251L22.3745 50.6072L-8.12304 68.215C-9.55792 69.0434 -11.3927 68.5518 -12.2211 67.1169C-13.0495 65.682 -12.5579 63.8472 -11.123 63.0188L19.3743 45.4112L0.0704363 45.4112C-1.58642 45.4112 -2.92956 44.068 -2.92957 42.4112C-2.92957 40.7543 -1.58642 39.4112 0.0704344 39.4112L19.762 39.4112L-11.0261 21.6356C-12.461 20.8072 -12.9526 18.9724 -12.1242 17.5376C-11.2958 16.1027 -9.46101 15.611 -8.02613 16.4395L22.1797 33.8788L12.7224 17.4982C11.8939 16.0633 12.3856 14.2286 13.8204 13.4002C15.2553 12.5717 17.0901 13.0633 17.9185 14.4982L27.5705 31.2159L27.5705 -3.99946C27.5705 -5.65631 28.9136 -6.99946 30.5705 -6.99946C32.2273 -6.99946 33.5705 -5.65631 33.5705 -3.99946L33.5705 31.2152L43.2225 14.4975C44.0509 13.0626 45.8857 12.571 47.3205 13.3994C48.7554 14.2279 49.247 16.0626 48.4186 17.4975L38.7669 34.2149L69.2638 16.6074Z" fill="white"/>
</g>
<path d="M82.9993 59.0166L123.656 90.7413L113.842 61.2849L112.215 71.3968L99.1996 56.3168L107.198 72.8034L82.9993 59.0166Z" fill="white"/>
<path fill-rule="evenodd" clip-rule="evenodd" d="M34.1518 47.1479C32.0779 49.1493 28.7967 49.3875 26.44 47.5808C23.844 45.5906 23.3529 41.8728 25.3431 39.2768C27.3332 36.6808 31.0511 36.1897 33.6471 38.1798C35.6553 39.7194 36.4039 42.2929 35.7186 44.5812L167.999 106.501L139 140.501L34.1518 47.1479Z" fill="white"/>
<g filter="url(#filter2_d_2378_5953)">
<path d="M64.0755 85L110.806 106.811L80.106 111.447L88.3752 105.404L69.0288 100.659L87.3496 100.296L64.0755 85Z" fill="white"/>
</g>
<path fill-rule="evenodd" clip-rule="evenodd" d="M66.9999 12.9996H60.9999V19.9996L53.9999 19.9996V25.9996H60.9999V32.9996H66.9999V25.9996H73.9999V19.9996L66.9999 19.9996V12.9996Z" fill="white"/>
</g>
</g>
<path d="M57.3443 5.20603L16.993 28.5342C12.6653 31.0361 9.99999 35.6556 9.99999 40.6544V87.3456C9.99999 92.3444 12.6653 96.9639 16.993 99.4658L57.3443 122.794C61.6795 125.3 67.0232 125.3 71.3584 122.794L111.71 99.4658C116.037 96.9639 118.703 92.3444 118.703 87.3456V40.6544C118.703 35.6556 116.037 31.0361 111.71 28.5342L71.3584 5.20603C67.0232 2.69975 61.6795 2.69975 57.3443 5.20603Z" stroke="url(#paint2_linear_2378_5953)" stroke-width="2"/>
<defs>
<filter id="filter0_d_2378_5953" x="-12.6235" y="-6.99951" width="180.623" height="150.5" filterUnits="userSpaceOnUse" color-interpolation-filters="sRGB">
<feFlood flood-opacity="0" result="BackgroundImageFix"/>
<feColorMatrix in="SourceAlpha" type="matrix" values="0 0 0 0 0 0 0 0 0 0 0 0 0 0 0 0 0 0 127 0" result="hardAlpha"/>
<feOffset dy="3"/>
<feComposite in2="hardAlpha" operator="out"/>
<feColorMatrix type="matrix" values="0 0 0 0 0 0 0 0 0 0 0 0 0 0 0 0 0 0 0.3 0"/>
<feBlend mode="normal" in2="BackgroundImageFix" result="effect1_dropShadow_2378_5953"/>
<feBlend mode="normal" in="SourceGraphic" in2="effect1_dropShadow_2378_5953" result="shape"/>
</filter>
<filter id="filter1_d_2378_5953" x="-12.6235" y="-6.99951" width="86.3878" height="101.823" filterUnits="userSpaceOnUse" color-interpolation-filters="sRGB">
<feFlood flood-opacity="0" result="BackgroundImageFix"/>
<feColorMatrix in="SourceAlpha" type="matrix" values="0 0 0 0 0 0 0 0 0 0 0 0 0 0 0 0 0 0 127 0" result="hardAlpha"/>
<feOffset dy="3"/>
<feComposite in2="hardAlpha" operator="out"/>
<feColorMatrix type="matrix" values="0 0 0 0 0 0 0 0 0 0 0 0 0 0 0 0 0 0 0.3 0"/>
<feBlend mode="normal" in2="BackgroundImageFix" result="effect1_dropShadow_2378_5953"/>
<feBlend mode="normal" in="SourceGraphic" in2="effect1_dropShadow_2378_5953" result="shape"/>
</filter>
<filter id="filter2_d_2378_5953" x="64.0755" y="85" width="46.7306" height="29.4473" filterUnits="userSpaceOnUse" color-interpolation-filters="sRGB">
<feFlood flood-opacity="0" result="BackgroundImageFix"/>
<feColorMatrix in="SourceAlpha" type="matrix" values="0 0 0 0 0 0 0 0 0 0 0 0 0 0 0 0 0 0 127 0" result="hardAlpha"/>
<feOffset dy="3"/>
<feComposite in2="hardAlpha" operator="out"/>
<feColorMatrix type="matrix" values="0 0 0 0 0 0 0 0 0 0 0 0 0 0 0 0 0 0 0.3 0"/>
<feBlend mode="normal" in2="BackgroundImageFix" result="effect1_dropShadow_2378_5953"/>
<feBlend mode="normal" in="SourceGraphic" in2="effect1_dropShadow_2378_5953" result="shape"/>
</filter>
<linearGradient id="paint0_linear_2378_5953" x1="64.3513" y1="0" x2="64.3513" y2="128" gradientUnits="userSpaceOnUse">
<stop stop-color="white" stop-opacity="0.3"/>
<stop offset="1" stop-color="white" stop-opacity="0"/>
</linearGradient>
<linearGradient id="paint1_linear_2378_5953" x1="64" y1="0" x2="64" y2="128" gradientUnits="userSpaceOnUse">
<stop stop-color="#097C3F"/>
<stop offset="1" stop-color="#20BF6B"/>
</linearGradient>
<linearGradient id="paint2_linear_2378_5953" x1="64.3513" y1="0" x2="64.3513" y2="128" gradientUnits="userSpaceOnUse">
<stop stop-color="white" stop-opacity="0.3"/>
<stop offset="1" stop-color="white" stop-opacity="0"/>
</linearGradient>
</defs>
</svg>
