<svg width="128" height="128" viewBox="0 0 128 128" fill="none" xmlns="http://www.w3.org/2000/svg">
<mask id="mask0_2665_6275" style="mask-type:alpha" maskUnits="userSpaceOnUse" x="9" y="0" width="111" height="128">
<path d="M57.3444 5.20603L16.993 28.5342C12.6654 31.0361 10.0001 35.6556 10.0001 40.6544V87.3456C10.0001 92.3444 12.6654 96.9639 16.993 99.4658L57.3444 122.794C61.6796 125.3 67.0233 125.3 71.3584 122.794L111.71 99.4658C116.037 96.9639 118.703 92.3444 118.703 87.3456V40.6544C118.703 35.6556 116.037 31.0361 111.71 28.5342L71.3585 5.20603C67.0233 2.69975 61.6796 2.69975 57.3444 5.20603Z" fill="#D9D9D9" stroke="url(#paint0_linear_2665_6275)" stroke-width="2"/>
</mask>
<g mask="url(#mask0_2665_6275)">
<rect width="128" height="128" fill="url(#paint1_linear_2665_6275)"/>
<g filter="url(#filter0_d_2665_6275)">
<g filter="url(#filter1_d_2665_6275)">
<path d="M79.9201 63.0866C80.3785 63.3606 80.771 63.4949 81.0157 63.763C81.5017 64.2981 82.0191 64.4273 82.7376 64.3513C85.6796 64.0407 87.5675 66.298 87.733 68.9351C87.7653 69.4618 87.6139 69.9986 87.5778 70.5321C87.4577 72.3013 87.3584 74.0723 87.2367 75.8408C87.1953 76.457 87.1389 77.0752 87.048 77.685C86.9143 78.5889 86.1465 79.1076 85.3571 78.6865C84.6895 78.3309 84.0058 77.81 83.6068 77.1829C82.748 75.8359 81.9343 74.4255 81.3707 72.9366C81.0564 72.1108 81.171 71.0601 81.298 70.1395C81.42 69.2638 81.5123 68.5521 80.8164 67.8185C79.5815 66.5171 79.5774 64.9061 79.9206 63.085L79.9201 63.0866Z" fill="white"/>
<path d="M90.0852 42.2907C90.1597 42.1133 90.2507 41.9416 90.307 41.7587C90.5744 40.9001 90.2381 40.44 89.3736 40.6399C87.6644 41.0345 85.9787 41.5263 84.2828 41.9787C84.2717 42.1143 84.2624 42.2514 84.2513 42.3871C84.557 42.5472 84.8612 42.8396 85.1658 42.8422C85.8311 42.8445 86.4947 42.6654 87.1626 42.6227C87.7065 42.5877 88.3022 42.5145 88.7956 42.687C89.5886 42.9641 89.6917 43.5774 89.2616 44.3079C88.6411 45.3627 88.1331 46.4924 87.4281 47.4846C86.7065 48.5001 85.6648 49.1111 84.3624 49.2215C83.6917 49.2784 83.0211 49.4158 82.3641 49.5732C80.6925 49.9769 79.2423 49.3325 77.8514 48.5837C76.8826 48.0625 76.8596 46.8919 77.5909 46.0736C78.0782 45.5269 78.4041 44.84 78.8579 44.2579C79.199 43.8204 79.5812 43.3827 80.0279 43.0608C81.3067 42.1382 82.6143 41.2535 83.9434 40.4046C84.2456 40.2121 84.7316 40.0601 85.038 40.1635C86.5038 40.6577 87.8654 40.3502 89.242 39.8394C89.7282 39.6582 90.2432 39.2028 90.7747 39.8197C91.3174 40.4519 91.1301 41.055 90.7881 41.6881C90.6435 41.9582 90.567 42.2645 90.4604 42.5555L90.0849 42.289L90.0852 42.2907Z" fill="white"/>
<path d="M75.8335 15.9501C76.9911 16.4468 77.885 16.8342 78.3434 17.8267C78.4638 18.0876 78.7635 18.2688 78.9886 18.4798C79.2759 18.7484 79.5977 18.984 79.8532 19.2774C81.1629 20.7808 80.9052 22.2148 79.1395 23.1023C78.47 23.4395 77.7273 23.6274 77.0531 23.9576C76.8362 24.0638 76.7337 24.4073 76.5766 24.6403C76.4015 24.8993 76.2329 25.3672 76.0467 25.3744C75.5348 25.3945 74.7522 25.4032 74.5459 25.0964C73.3108 23.2685 72.4571 21.2658 72.3029 19.0045C72.2373 18.0368 72.2348 17.0982 72.7242 16.2386C72.8524 16.0118 73.1443 15.7143 73.3506 15.7212C74.2672 15.7535 75.1787 15.8828 75.8329 15.9517L75.8335 15.9501Z" fill="white"/>
<path d="M98.1822 100.155C98.2148 100.66 98.2614 101.104 98.2664 101.549C98.2772 102.423 98.0731 103.205 97.4384 103.871C96.9989 104.333 96.7016 104.93 96.2684 105.4C95.986 105.706 95.5983 105.95 95.2122 106.113C94.7559 106.303 94.2224 106.308 93.7744 106.51C93.1086 106.811 92.7742 106.508 92.6636 105.94C92.5017 105.117 92.1499 104.513 91.4234 104.044C90.7002 103.576 90.6447 102.739 91.1357 102.004C92.2313 100.365 93.2874 98.696 94.4475 97.1026C94.8411 96.5619 95.4728 96.1738 96.0505 95.8029C96.2247 95.6909 96.7334 95.7883 96.8253 95.9459C96.9595 96.1775 96.9267 96.5721 96.8319 96.8518C96.7377 97.1299 96.5156 97.396 96.2864 97.5949C95.1364 98.5954 94.8736 100.013 94.6119 101.381C94.5261 101.836 94.9351 102.399 95.1651 102.89C95.1963 102.955 95.5462 102.959 95.6699 102.875C96.6681 102.195 97.7766 101.604 98.0397 100.247C98.0426 100.229 98.0838 100.218 98.1822 100.155Z" fill="white"/>
<path d="M98.3071 66.3906C98.9843 67.0854 99.1128 67.8449 98.8994 68.6853C98.8169 69.0124 98.6715 69.3248 98.5645 69.6452C98.3843 70.1827 98.4849 70.584 98.9583 70.98C99.2597 71.2336 99.5894 71.7774 99.5159 72.104C99.2038 73.4939 98.924 74.94 98.2947 76.1948C97.5904 77.5942 96.6022 77.4437 95.8566 76.0479C95.5695 75.51 95.2469 74.9561 94.8164 74.5391C93.7499 73.5045 93.5339 72.3625 94.2977 71.07C94.4689 70.7808 94.6792 70.5125 94.8964 70.2555C95.8312 69.1444 97.1485 68.3672 97.723 66.9353C97.8046 66.7301 98.0735 66.6024 98.3082 66.3928L98.3071 66.3906Z" fill="white"/>
<path d="M105.67 57.4045C107.181 58.0041 108.693 58.6059 110.205 59.2023C110.81 59.4407 111.261 59.7157 110.862 60.5043C110.719 60.7873 110.693 61.1804 110.747 61.4991C110.869 62.2152 110.536 62.3943 109.954 62.2301C108.988 61.9564 108.07 61.7797 107.257 62.6151C107.193 62.681 106.87 62.5833 106.737 62.4741C105.934 61.8167 105.044 61.2239 104.397 60.4301C103.919 59.8442 103.753 58.9925 103.492 58.2445C103.449 58.1179 103.586 57.844 103.717 57.753C104.31 57.3426 104.949 57.063 105.668 57.404L105.67 57.4045Z" fill="white"/>
<path d="M58.604 21.2357C59.3509 20.5553 59.8277 19.9805 60.4245 19.6055C62.0758 18.5687 63.8868 18.0256 65.8534 18.2048C66.4885 18.2616 67.3133 18.2908 67.3979 19.0693C67.4553 19.5904 67.0949 20.2055 66.7978 20.7042C66.6321 20.9827 66.2374 21.1907 65.9043 21.2925C64.1178 21.8423 62.3259 22.4854 60.4206 22.1389C59.8634 22.0372 59.3614 21.6259 58.6019 21.2368L58.604 21.2357Z" fill="white"/>
<path d="M41.8596 30.6443C41.4057 31.3905 41.3131 32.0877 41.7732 32.8635C41.8761 33.0357 41.4174 33.791 41.0736 33.9394C40.1156 34.3526 39.103 34.8313 38.0225 34.3954C37.8049 34.3074 37.6402 33.9628 37.5501 33.7016C37.0229 32.1589 38.2819 31.7782 39.2241 31.2966C39.9796 30.912 40.8354 30.7274 41.647 30.4538C41.7182 30.5163 41.7889 30.5803 41.8585 30.6422L41.8596 30.6443Z" fill="white"/>
<path d="M55.6866 43.4197C56.2001 41.8301 56.7307 40.3144 57.1764 38.7738C57.5947 37.3232 58.0831 35.9167 59.4513 35.1179C59.9737 34.8128 60.6505 34.6312 61.2519 34.6405C62.4277 34.6595 63.5986 34.882 64.7748 34.9691C65.7128 35.0378 66.2326 35.4943 66.0309 36.4134C65.8697 37.1577 65.557 37.949 65.0795 38.5219C64.2817 39.4792 63.3598 40.3604 62.3664 41.1085C61.9503 41.4218 61.1279 41.5343 60.6512 41.3382C59.8173 40.9941 59.4215 41.1956 58.9697 41.8871C58.3697 42.8059 57.5709 43.5182 56.3673 43.496C56.0705 43.4914 55.7759 43.4299 55.6825 43.4187L55.6866 43.4197Z" fill="white"/>
<path d="M100.126 91.6462C100.112 90.6705 99.7856 89.9566 98.8903 89.4984C98.6908 89.3971 98.6757 88.4099 98.9123 88.0646C99.5719 87.1026 100.244 86.0462 101.524 85.8132C101.782 85.7666 102.142 85.9938 102.382 86.1868C103.796 87.3295 102.833 88.4403 102.229 89.4574C101.743 90.2716 101.045 90.9566 100.44 91.6993C100.336 91.6828 100.231 91.6645 100.129 91.6476L100.126 91.6462Z" fill="white"/>
</g>
<g filter="url(#filter2_d_2665_6275)">
<path fill-rule="evenodd" clip-rule="evenodd" d="M37.1343 55.8089C37.5989 56.3273 38.0663 56.8488 38.5377 57.3753L38.5409 57.3786C38.6788 57.2609 38.8036 57.1482 38.9215 57.0419C39.1688 56.8188 39.3852 56.6234 39.6267 56.4675C40.0925 56.166 40.6113 56.1433 41.0032 56.5956C41.3758 57.0252 41.3164 57.5326 40.9197 57.9038C38.7208 59.9578 36.5107 61.9971 34.2829 64.0186C33.8316 64.4288 33.2614 64.4353 32.8438 63.9684C32.415 63.4902 32.5547 62.9763 32.9819 62.5288C33.241 62.2571 33.4944 61.9804 33.7644 61.6857C33.8761 61.5638 33.9906 61.4388 34.1095 61.3098C33.5695 60.706 33.0264 60.0982 32.4812 59.4881C31.5524 58.4486 30.6175 57.4023 29.6812 56.3573C28.2229 54.7293 26.7641 53.1016 25.3054 51.4739C22.3862 48.2167 19.467 44.9594 16.5507 41.6993C15.7926 40.853 15.8167 40.1041 16.6262 39.3033C17.2381 38.6986 17.8694 38.1134 18.5086 37.5395C19.3583 36.7776 20.1823 36.8213 20.95 37.6805C23.8253 40.8991 26.698 44.1197 29.5709 47.3405C31.243 49.2151 32.9153 51.0898 34.5881 52.9643C35.4324 53.9099 36.2786 54.8541 37.1343 55.8089ZM20.2758 44.8178C20.6582 42.4737 21.4711 41.73 23.6998 41.683C23.6402 41.8745 23.582 42.0651 23.5241 42.2548C23.3605 42.7909 23.1991 43.3198 23.014 43.8407C22.9529 44.0142 22.7747 44.2249 22.6108 44.2703C22.0515 44.4236 21.4845 44.5491 20.9077 44.6766C20.6984 44.7229 20.4878 44.7695 20.2758 44.8178ZM31.2569 50.2636C29.1978 50.1339 28.2614 50.9833 27.8454 53.3615C28.0487 53.3159 28.2508 53.2721 28.4515 53.2286C29.0069 53.1082 29.5524 52.99 30.0892 52.8411C30.2803 52.7892 30.5052 52.5915 30.5727 52.4067C30.7579 51.9029 30.914 51.3882 31.0715 50.8687C31.1325 50.6676 31.1937 50.4658 31.2569 50.2636ZM21.0015 39.3365C21.0537 39.1802 21.1066 39.0217 21.1604 38.8607H21.1588C21.0273 38.8885 20.9164 38.9157 20.8187 38.9397C20.6433 38.9828 20.5102 39.0155 20.375 39.0228C18.5167 39.1201 17.9577 40.4024 17.7055 42.0737C17.8213 42.0472 17.9365 42.0209 18.0513 41.9947C18.7444 41.8363 19.4217 41.6816 20.0955 41.5161C20.1871 41.4934 20.2995 41.3993 20.33 41.3134C20.5564 40.6702 20.7721 40.0238 21.0015 39.3365ZM22.8226 47.1542C22.7632 47.3257 22.7029 47.4996 22.6413 47.6763C22.7159 47.6808 22.7694 47.6861 22.8098 47.6902C22.8704 47.6962 22.9016 47.6993 22.9305 47.6925C24.5945 47.3153 25.6727 46.2459 26.1653 44.4843C25.9578 44.5404 25.7536 44.5949 25.552 44.6488C24.9137 44.8193 24.3012 44.9829 23.6934 45.1652C23.5713 45.2008 23.4573 45.3743 23.4059 45.5105C23.2062 46.0468 23.0187 46.5879 22.8226 47.1542ZM33.7417 52.9546C33.2534 55.3976 32.5467 56.025 30.3735 55.9942C30.8409 53.7019 31.3308 53.2512 33.7417 52.9546ZM32.968 58.3705C32.8953 58.584 32.8198 58.8057 32.7394 59.0386H32.741C32.9882 58.9809 33.2225 58.9303 33.4466 58.882C33.9782 58.7672 34.4529 58.6647 34.9094 58.5085C35.1808 58.4145 35.4667 58.1308 35.5872 57.8617C35.7817 57.4235 35.9291 56.963 36.0937 56.4486C36.1641 56.2284 36.2377 55.9983 36.3196 55.7559C36.0591 55.8294 35.8087 55.8988 35.5658 55.9661C34.958 56.1345 34.3971 56.2898 33.8429 56.4659C33.6999 56.5113 33.5602 56.7026 33.5007 56.8582C33.3187 57.3407 33.1524 57.8291 32.968 58.3705ZM28.6822 47.4866C26.7082 47.318 25.6802 48.2339 25.2723 50.5505C25.4716 50.5029 25.6687 50.4566 25.8639 50.4107C26.4806 50.2657 27.079 50.1249 27.6719 49.9636C27.7908 49.9312 27.9048 49.7497 27.9546 49.6135C28.1372 49.1107 28.3074 48.6028 28.4794 48.0893C28.5464 47.8893 28.6137 47.6884 28.6822 47.4866ZM36.6392 64.1874L40.8731 59.9191C56.1655 77.4675 73.0674 93.4111 89.9998 109.376C89.2449 110.055 88.4016 110.081 87.5519 109.912C85.1941 109.445 83.1783 108.205 81.222 106.889C75.2807 102.89 69.9899 98.0864 64.7827 93.1906C56.1431 85.0689 47.9483 76.4997 39.8981 67.7879C39.1311 66.9587 38.3763 66.1186 37.6301 65.2881C37.2982 64.9187 36.968 64.5513 36.6392 64.1874Z" fill="white"/>
</g>
</g>
</g>
<path d="M57.3444 5.20603L16.993 28.5342C12.6654 31.0361 10.0001 35.6556 10.0001 40.6544V87.3456C10.0001 92.3444 12.6654 96.9639 16.993 99.4658L57.3444 122.794C61.6796 125.3 67.0233 125.3 71.3584 122.794L111.71 99.4658C116.037 96.9639 118.703 92.3444 118.703 87.3456V40.6544C118.703 35.6556 116.037 31.0361 111.71 28.5342L71.3585 5.20603C67.0233 2.69975 61.6796 2.69975 57.3444 5.20603Z" stroke="url(#paint2_linear_2665_6275)" stroke-width="2"/>
<defs>
<filter id="filter0_d_2665_6275" x="-12.7892" y="15.7211" width="123.802" height="97.2783" filterUnits="userSpaceOnUse" color-interpolation-filters="sRGB">
<feFlood flood-opacity="0" result="BackgroundImageFix"/>
<feColorMatrix in="SourceAlpha" type="matrix" values="0 0 0 0 0 0 0 0 0 0 0 0 0 0 0 0 0 0 127 0" result="hardAlpha"/>
<feOffset dy="3"/>
<feComposite in2="hardAlpha" operator="out"/>
<feColorMatrix type="matrix" values="0 0 0 0 0 0 0 0 0 0 0 0 0 0 0 0 0 0 0.3 0"/>
<feBlend mode="normal" in2="BackgroundImageFix" result="effect1_dropShadow_2665_6275"/>
<feBlend mode="normal" in="SourceGraphic" in2="effect1_dropShadow_2665_6275" result="shape"/>
</filter>
<filter id="filter1_d_2665_6275" x="-12.7892" y="15.7211" width="123.802" height="93.9077" filterUnits="userSpaceOnUse" color-interpolation-filters="sRGB">
<feFlood flood-opacity="0" result="BackgroundImageFix"/>
<feColorMatrix in="SourceAlpha" type="matrix" values="0 0 0 0 0 0 0 0 0 0 0 0 0 0 0 0 0 0 127 0" result="hardAlpha"/>
<feOffset dy="3"/>
<feComposite in2="hardAlpha" operator="out"/>
<feColorMatrix type="matrix" values="0 0 0 0 0 0 0 0 0 0 0 0 0 0 0 0 0 0 0.3 0"/>
<feBlend mode="normal" in2="BackgroundImageFix" result="effect1_dropShadow_2665_6275"/>
<feBlend mode="normal" in="SourceGraphic" in2="effect1_dropShadow_2665_6275" result="shape"/>
</filter>
<filter id="filter2_d_2665_6275" x="16" y="37.0001" width="73.9998" height="75.9993" filterUnits="userSpaceOnUse" color-interpolation-filters="sRGB">
<feFlood flood-opacity="0" result="BackgroundImageFix"/>
<feColorMatrix in="SourceAlpha" type="matrix" values="0 0 0 0 0 0 0 0 0 0 0 0 0 0 0 0 0 0 127 0" result="hardAlpha"/>
<feOffset dy="3"/>
<feComposite in2="hardAlpha" operator="out"/>
<feColorMatrix type="matrix" values="0 0 0 0 0 0 0 0 0 0 0 0 0 0 0 0 0 0 0.3 0"/>
<feBlend mode="normal" in2="BackgroundImageFix" result="effect1_dropShadow_2665_6275"/>
<feBlend mode="normal" in="SourceGraphic" in2="effect1_dropShadow_2665_6275" result="shape"/>
</filter>
<linearGradient id="paint0_linear_2665_6275" x1="64.3514" y1="0" x2="64.3514" y2="128" gradientUnits="userSpaceOnUse">
<stop stop-color="white" stop-opacity="0.3"/>
<stop offset="1" stop-color="white" stop-opacity="0"/>
</linearGradient>
<linearGradient id="paint1_linear_2665_6275" x1="64" y1="0" x2="64" y2="128" gradientUnits="userSpaceOnUse">
<stop stop-color="#362167"/>
<stop offset="1" stop-color="#8A2C6A"/>
</linearGradient>
<linearGradient id="paint2_linear_2665_6275" x1="64.3514" y1="0" x2="64.3514" y2="128" gradientUnits="userSpaceOnUse">
<stop stop-color="white" stop-opacity="0.3"/>
<stop offset="1" stop-color="white" stop-opacity="0"/>
</linearGradient>
</defs>
</svg>
