<svg width="128" height="128" viewBox="0 0 128 128" fill="none" xmlns="http://www.w3.org/2000/svg">
<mask id="mask0_2665_6275" style="mask-type:alpha" maskUnits="userSpaceOnUse" x="9" y="0" width="111" height="128">
<path d="M57.3444 5.20603L16.993 28.5342C12.6654 31.0361 10.0001 35.6556 10.0001 40.6544V87.3456C10.0001 92.3444 12.6654 96.9639 16.993 99.4658L57.3444 122.794C61.6796 125.3 67.0233 125.3 71.3584 122.794L111.71 99.4658C116.037 96.9639 118.703 92.3444 118.703 87.3456V40.6544C118.703 35.6556 116.037 31.0361 111.71 28.5342L71.3585 5.20603C67.0233 2.69975 61.6796 2.69975 57.3444 5.20603Z" fill="#D9D9D9" stroke="url(#paint0_linear_2665_6275)" stroke-width="2"/>
</mask>
<g mask="url(#mask0_2665_6275)">
<rect width="128" height="128" fill="url(#paint1_linear_2665_6275)"/>
<g filter="url(#filter0_d_2665_6275)">
<path d="M56.9597 49.906C56.4531 50.5553 55.9373 51.1929 55.44 51.854C53.5549 54.3652 54.0064 56.6381 56.6397 58.4691C58.6985 59.9005 60.8608 61.2347 62.6621 63.1322C65.0828 65.6795 65.2708 68.9293 63.6293 72.0038C62.9095 73.3525 62.0675 74.6034 61.4426 76.0256C59.9862 79.3481 60.6169 81.6102 63.4186 83.5448C68.8306 87.2865 72.9643 92.5427 75.4221 99.8406C79.6226 112.312 75.9609 127.366 67.0396 132.465C61.6955 135.523 56.1954 133.758 50.8903 129.4C42.8253 122.776 40.4302 112.694 42.0305 101.561C42.6867 97.0039 43.6869 92.7279 46.3333 89.4184C48.2346 87.0403 48.5689 83.6476 47.2598 80.2967C45.9141 76.8507 46.6064 74.3658 48.2966 72.1341C49.2521 70.8738 50.3691 69.8205 51.3985 68.6548C53.8723 65.8564 54.0808 64.1515 52.4801 60.0206C50.7051 55.4151 51.439 51.3267 54.4756 49.4634C55.0935 49.0797 55.9021 49.1436 56.6236 48.9996C56.7342 49.3016 56.8491 49.604 56.9597 49.906Z" fill="white"/>
<path d="M101.572 146.809C101.099 146.58 100.63 146.332 100.167 146.065C89.8715 140.121 86.3907 126.873 92.3932 116.476C93.1958 115.086 94.1274 113.819 95.164 112.679C95.9027 111.455 96.4058 110.284 96.2778 109.162C96.1289 107.858 95.6067 106.736 94.987 105.658C94.1371 104.178 93.6089 102.56 93.4663 100.925C93.782 93.509 99.4603 90.5564 101.471 87.0174C101.831 86.3014 102.3 85.5848 102.436 84.8221C102.718 83.2369 102.788 81.6234 102.327 80.0397C101.863 78.4446 101.389 76.8743 100.705 75.3405C99.7101 73.1103 99.4288 70.6488 99.2142 68.22C99.0036 65.8338 98.7831 63.4746 97.4825 61.385C97.351 61.1746 97.4002 60.9706 97.6842 61.0059C98.6071 61.1238 101.174 60.9407 102.742 64.4485C103.653 66.4881 100.335 70.2289 105.034 72.0467C105.806 72.3444 107.431 71.3276 107.972 70.7601C110.337 68.2782 108.092 65.09 106.959 63.5273C105.951 62.1367 104.794 60.8486 103.621 59.5915C103.25 59.1929 101.385 56.6217 101.06 55.3393C100.375 53.8255 100.363 52.1554 100.263 50.5228C100.182 49.1812 105.123 42.0766 105.76 41.6476C107.14 40.7174 106.926 37.2401 106.724 35.4352C106.675 34.996 106.912 34.5222 107.353 34.3461C107.788 34.1727 108.244 34.4787 108.405 34.806C108.672 35.3497 110.337 37.996 108.915 42.8315C108.261 45.0546 105.411 46.8259 105.191 49.2169C105.035 50.9036 107.368 53.4379 108.789 54.3021C109.211 54.5592 110.454 55.6708 112.378 55.082C112.746 54.9695 113.034 54.8132 113.214 54.3563C113.554 53.4942 113.499 52.4887 112.837 51.6819C112.63 51.4301 112.476 51.1679 112.744 50.875C113.011 50.5837 113.299 50.7463 113.573 50.8814C114.444 51.3073 115.157 51.8768 115.725 52.7081C116.584 53.9646 117.507 55.2039 118.079 56.6006C119.035 58.9289 119.583 61.3831 119.864 63.9101C120.103 66.0376 120.746 68.0606 121.654 70.0197C122.17 71.1321 122.713 72.1969 123.397 73.2102C123.998 74.1028 124.634 74.9594 125.285 75.8139C125.879 76.5946 126.505 77.4172 127.249 77.9252C128.21 78.5799 128.865 79.4785 129.582 80.2862C130.791 81.6472 131.499 83.3466 131.814 85.1899C132.183 87.3485 131.447 89.3514 130.865 91.351C130.551 92.428 128.343 97.2633 127.872 98.762C127.552 99.78 127.237 100.817 127.1 101.839C126.816 103.965 127.083 106.074 127.782 108.124C128.265 109.546 129.114 110.794 129.639 112.171C130.278 113.842 133.768 117.964 132.559 128.683C132.56 128.738 132.555 128.787 132.547 128.834C132.294 131.966 131.357 135.098 129.678 138.007C124.306 147.311 113.158 151.178 103.494 147.627C102.829 147.419 102.178 147.166 101.57 146.812L101.572 146.809Z" fill="white"/>
<path d="M32.5721 146.809C32.0993 146.58 31.6299 146.332 31.1677 146.065C20.8718 140.121 17.3909 126.873 23.3934 116.476C24.196 115.086 25.1276 113.819 26.1642 112.679C26.9029 111.455 27.406 110.284 27.2781 109.162C27.1291 107.858 26.6069 106.736 25.9872 105.658C25.1373 104.178 24.6091 102.56 24.4665 100.925C24.7823 93.509 30.4606 90.5564 32.4715 87.0174C32.8316 86.3014 33.3005 85.5848 33.4365 84.8221C33.7183 83.2369 33.7882 81.6234 33.3273 80.0397C32.8634 78.4446 32.3891 76.8743 31.7053 75.3405C30.7103 73.1103 30.429 70.6488 30.2145 68.22C30.0038 65.8338 29.7833 63.4746 28.4827 61.385C28.3512 61.1746 28.4005 60.9706 28.6845 61.0059C29.6074 61.1238 32.1745 60.9407 33.7425 64.4485C34.6535 66.4881 31.3353 70.2289 36.0341 72.0467C36.8058 72.3444 38.4314 71.3276 38.9721 70.7601C41.3371 68.2782 39.0919 65.09 37.9588 63.5273C36.9508 62.1367 35.7943 60.8486 34.6217 59.5915C34.2507 59.1929 32.3855 56.6217 32.0607 55.3393C31.3749 53.8255 31.3633 52.1554 31.2635 50.5228C31.1821 49.1812 36.1228 42.0766 36.7605 41.6476C38.1402 40.7174 37.926 37.2401 37.7241 35.4352C37.6753 34.996 37.9126 34.5222 38.3529 34.3461C38.7878 34.1727 39.2445 34.4787 39.4056 34.806C39.6718 35.3497 41.3377 37.996 39.9155 42.8315C39.2616 45.0546 36.411 46.8259 36.1909 49.2169C36.035 50.9036 38.3685 53.4379 39.7888 54.3021C40.211 54.5592 41.4543 55.6708 43.3787 55.082C43.7461 54.9695 44.0342 54.8132 44.2143 54.3563C44.5542 53.4942 44.4994 52.4887 43.8372 51.6819C43.6306 51.4301 43.4758 51.1679 43.7438 50.875C44.0109 50.5837 44.2993 50.7463 44.5732 50.8814C45.4439 51.3073 46.1575 51.8768 46.7257 52.7081C47.5847 53.9646 48.507 55.2039 49.0797 56.6006C50.0351 58.9289 50.5831 61.3831 50.8646 63.9101C51.1029 66.0376 51.7458 68.0606 52.6538 70.0197C53.17 71.1321 53.7136 72.1969 54.3974 73.2102C54.9986 74.1028 55.6339 74.9594 56.2856 75.8139C56.8792 76.5946 57.5056 77.4172 58.249 77.9252C59.2101 78.5799 59.865 79.4785 60.5818 80.2862C61.7914 81.6472 62.4993 83.3466 62.8142 85.1899C63.1829 87.3485 62.4469 89.3514 61.8649 91.351C61.5513 92.428 59.3436 97.2633 58.8721 98.762C58.5526 99.78 58.237 100.817 58.1 101.839C57.8162 103.965 58.0837 106.074 58.7818 108.124C59.2656 109.546 60.1141 110.794 60.6392 112.171C61.2779 113.842 64.7681 117.964 63.5593 128.683C63.5603 128.738 63.555 128.787 63.5468 128.834C63.294 131.966 62.3572 135.098 60.6779 138.007C55.3059 147.311 44.158 151.178 34.4946 147.627C33.8289 147.419 33.1779 147.166 32.5704 146.812L32.5721 146.809Z" fill="white"/>
<path d="M74.2748 45.0583C77.1604 46.2521 78.1176 48.3518 78.8989 50.5613C79.6142 52.5949 79.1809 54.6555 78.9894 56.7163C78.7597 59.1342 79.0025 61.4973 81.3936 62.8228C83.8067 64.1592 86.175 63.5612 88.3561 62.1279C89.1032 61.6336 89.7239 60.9579 90.3776 60.3372C90.9215 59.8264 91.3387 58.9363 92.2622 59.3433C93.224 59.7669 93.3014 60.7781 93.2963 61.6739C93.2865 64.3007 91.3527 65.7946 89.7542 67.4591C87.535 69.7552 85.5962 72.1889 86.3176 75.6678C86.8572 78.24 88.0617 80.5101 91.0897 80.385C94.332 80.2545 94.4518 77.7706 94.2968 75.2756C94.2913 75.1162 94.6154 74.935 94.7857 74.7647C99.5517 77.9157 101.373 82.5162 98.5281 87.34C95.2277 92.9495 96.2244 97.5606 99.0568 102.931C104.392 113.056 105.017 123.437 98.6304 133.574C92.227 143.748 78.5119 147.501 68.348 141.106C57.552 134.32 53.2724 124.679 60.5431 112.339C61.0703 111.449 61.515 110.509 61.9487 109.57C62.8437 107.641 63.6725 105.372 62.6441 103.575C59.9658 98.8859 62.1071 94.5674 63.0504 90.1274C63.1492 89.6768 63.3577 89.0394 63.6929 88.8912C64.3467 88.6112 65.0009 89.0676 65.3089 89.6283C65.7434 90.4034 66.0954 91.2608 66.2772 92.1237C66.7012 94.1956 67.367 96.1468 69.9716 95.5105C72.697 94.8412 72.4597 92.5275 72.0522 90.439C71.4573 87.3723 69.2527 85.2336 67.3888 82.9302C65.7613 80.9182 65.2438 78.8187 66.3858 76.4561C66.858 75.4781 67.6544 74.4178 68.7046 75.6438C70.1616 77.3425 71.6788 78.4203 73.6015 76.7065C75.6011 74.9268 75.4517 72.5692 74.511 70.2552C73.7133 68.293 72.1519 66.8745 70.9038 65.2308C68.7978 62.4547 68.1205 59.4044 70.9606 56.8722C74.5972 53.6314 76.4752 50.1041 74.2583 45.0748L74.2748 45.0583Z" fill="white"/>
<path d="M5.60818 48.9304C8.49382 50.1242 9.45093 52.2238 10.2322 54.4334C10.9475 56.467 10.5143 58.5276 10.3228 60.5883C10.093 63.0063 10.3359 65.3694 12.727 66.6949C15.1401 68.0313 17.5084 67.4333 19.6894 65.9999C20.4366 65.5057 21.0573 64.83 21.711 64.2093C22.2548 63.6984 22.6721 62.8083 23.5955 63.2154C24.5574 63.639 24.6348 64.6502 24.6297 65.5459C24.6198 68.1728 22.6861 69.6667 21.0876 71.3311C18.8684 73.6273 16.9295 76.061 17.651 79.5399C18.1906 82.112 19.3951 84.3822 22.4231 84.2571C25.6653 84.1266 25.7852 81.6427 25.6302 79.1477C25.6247 78.9883 25.9488 78.8071 26.1191 78.6368C30.885 81.7878 32.706 86.3883 29.8614 91.2121C26.5611 96.8215 27.5577 101.433 30.3902 106.803C35.7252 116.928 36.3506 127.309 29.9638 137.446C23.5604 147.62 9.84531 151.373 -0.318579 144.978C-11.1146 138.192 -15.3943 128.551 -8.12355 116.211C-7.59637 115.321 -7.15164 114.382 -6.7179 113.442C-5.82297 111.513 -4.99413 109.244 -6.02256 107.447C-8.70087 102.758 -6.55949 98.4394 -5.61618 93.9995C-5.51745 93.5489 -5.3089 92.9115 -4.97374 92.7633C-4.3199 92.4833 -3.66574 92.9397 -3.35775 93.5004C-2.92327 94.2754 -2.5712 95.1329 -2.38947 95.9957C-1.96543 98.0677 -1.29964 100.019 1.30495 99.3825C4.03042 98.7133 3.79312 96.3996 3.38555 94.3111C2.79072 91.2444 0.586113 89.1057 -1.27785 86.8023C-2.90537 84.7902 -3.42285 82.6907 -2.28081 80.3282C-1.80862 79.3502 -1.01223 78.2899 0.037932 79.5158C1.49497 81.2146 3.01218 82.2923 4.93486 80.5786C6.93445 78.7989 6.78506 76.4413 5.84433 74.1273C5.04664 72.165 3.48532 70.7465 2.23714 69.1029C0.131173 66.3267 -0.546083 63.2764 2.29399 60.7443C5.9306 57.5035 7.80854 53.9762 5.5917 48.9469L5.60818 48.9304Z" fill="white"/>
</g>
<path d="M65.0709 7C66.7248 8.2522 67.01 10.0703 67.0124 11.9847C67.0124 12.6229 66.9429 13.2682 66.8327 13.8991C66.5259 15.6498 66.9645 17.0682 68.2565 18.3685C69.1505 19.2691 69.733 20.4852 70.5024 21.6339C70.663 21.1402 70.8667 20.5141 71.0681 19.9001C73.7215 23.7698 70.5168 30.2331 65.3514 30.8929C67.2473 29.7828 67.8082 28.2151 67.7627 26.096C67.3816 26.503 67.1443 26.7582 66.7152 27.2158C66.7056 25.1376 65.5983 24.0492 64.1769 23.0907C63.6399 22.7295 63.3811 21.9565 62.9305 21.2751C62.8274 21.8939 62.5997 22.638 62.5997 23.3797C62.5997 25.128 62.1922 25.8119 60.5 26.6836C60.3154 26.7799 60.2051 27.1484 60.1788 27.4036C60.0397 28.6847 60.6174 29.6479 61.6049 30.3944C61.8806 30.6015 62.1946 30.7581 62.5973 31.0037C56.3556 30.4041 53.8748 23.8469 55.4712 18.3107C55.9266 19.4329 56.3796 20.5478 56.8326 21.6652C56.9477 21.6411 57.0603 21.6146 57.1754 21.5905C57.2161 21.3064 57.2785 21.0246 57.2952 20.7381C57.4726 17.4944 58.9324 15.0141 61.6649 13.2851C62.2042 12.9431 62.7531 12.6132 63.2852 12.2568C65.3969 10.8361 65.7996 9.58868 65.0733 7H65.0709Z" fill="white"/>
</g>
<path d="M57.3444 5.20603L16.993 28.5342C12.6654 31.0361 10.0001 35.6556 10.0001 40.6544V87.3456C10.0001 92.3444 12.6654 96.9639 16.993 99.4658L57.3444 122.794C61.6796 125.3 67.0233 125.3 71.3584 122.794L111.71 99.4658C116.037 96.9639 118.703 92.3444 118.703 87.3456V40.6544C118.703 35.6556 116.037 31.0361 111.71 28.5342L71.3585 5.20603C67.0233 2.69975 61.6796 2.69975 57.3444 5.20603Z" stroke="url(#paint2_linear_2665_6275)" stroke-width="2"/>
<defs>
<filter id="filter0_d_2665_6275" x="-11.7319" y="34.2959" width="144.543" height="117.635" filterUnits="userSpaceOnUse" color-interpolation-filters="sRGB">
<feFlood flood-opacity="0" result="BackgroundImageFix"/>
<feColorMatrix in="SourceAlpha" type="matrix" values="0 0 0 0 0 0 0 0 0 0 0 0 0 0 0 0 0 0 127 0" result="hardAlpha"/>
<feOffset dy="3"/>
<feComposite in2="hardAlpha" operator="out"/>
<feColorMatrix type="matrix" values="0 0 0 0 0 0 0 0 0 0 0 0 0 0 0 0 0 0 0.3 0"/>
<feBlend mode="normal" in2="BackgroundImageFix" result="effect1_dropShadow_2665_6275"/>
<feBlend mode="normal" in="SourceGraphic" in2="effect1_dropShadow_2665_6275" result="shape"/>
</filter>
<linearGradient id="paint0_linear_2665_6275" x1="64.3514" y1="0" x2="64.3514" y2="128" gradientUnits="userSpaceOnUse">
<stop stop-color="white" stop-opacity="0.3"/>
<stop offset="1" stop-color="white" stop-opacity="0"/>
</linearGradient>
<linearGradient id="paint1_linear_2665_6275" x1="64" y1="0" x2="64" y2="128" gradientUnits="userSpaceOnUse">
<stop stop-color="#362167"/>
<stop offset="1" stop-color="#8A2C6A"/>
</linearGradient>
<linearGradient id="paint2_linear_2665_6275" x1="64.3514" y1="0" x2="64.3514" y2="128" gradientUnits="userSpaceOnUse">
<stop stop-color="white" stop-opacity="0.3"/>
<stop offset="1" stop-color="white" stop-opacity="0"/>
</linearGradient>
</defs>
</svg>
