<svg width="128" height="128" viewBox="0 0 128 128" fill="none" xmlns="http://www.w3.org/2000/svg">
<mask id="mask0_2665_6275" style="mask-type:alpha" maskUnits="userSpaceOnUse" x="9" y="0" width="111" height="128">
<path d="M57.3444 5.20603L16.993 28.5342C12.6654 31.0361 10.0001 35.6556 10.0001 40.6544V87.3456C10.0001 92.3444 12.6654 96.9639 16.993 99.4658L57.3444 122.794C61.6796 125.3 67.0233 125.3 71.3584 122.794L111.71 99.4658C116.037 96.9639 118.703 92.3444 118.703 87.3456V40.6544C118.703 35.6556 116.037 31.0361 111.71 28.5342L71.3585 5.20603C67.0233 2.69975 61.6796 2.69975 57.3444 5.20603Z" fill="#D9D9D9" stroke="url(#paint0_linear_2665_6275)" stroke-width="2"/>
</mask>
<g mask="url(#mask0_2665_6275)">
<rect width="128" height="128" fill="url(#paint1_linear_2665_6275)"/>
<path opacity="0.4" fill-rule="evenodd" clip-rule="evenodd" d="M54.113 94.9496C54.0324 94.9007 53.964 94.824 53.9003 94.747C52.9067 93.5406 51.9171 92.3368 51.1202 90.9808C50.6378 90.1609 50.1686 89.3476 49.8357 88.4535C49.7098 88.1164 49.664 87.7846 49.664 87.4371C49.6574 85.3783 49.6312 83.3299 49.1908 81.2946C48.8592 79.7628 49.4071 79.2071 50.9996 79.0835C51.1978 79.068 51.396 79.0528 51.5943 79.0376C52.9623 78.9328 54.3326 78.8277 55.6868 78.6254C56.5955 78.4891 57.452 78.1601 58.309 77.831L58.3091 77.831C58.7773 77.6511 59.2456 77.4713 59.7226 77.3227C60.8672 76.9649 61.9443 76.4599 63.0207 75.9552C63.4592 75.7496 63.8976 75.544 64.3404 75.3485C65.5213 74.8267 66.6734 74.242 67.8257 73.6573L67.8258 73.6572L67.826 73.6572C68.5128 73.3086 69.1996 72.9601 69.8927 72.6247C70.5153 72.3228 71.1694 72.082 71.8208 71.8426C71.8717 71.8237 71.9236 71.8069 71.9751 71.7903C72.2368 71.7056 72.4889 71.6239 72.5535 71.2934C72.6262 70.9199 72.3751 70.7016 72.1357 70.4935L72.1157 70.4761C71.589 70.0177 71.0601 69.5617 70.5312 69.1056L70.5311 69.1055L70.5305 69.105C69.9065 68.5671 69.2825 68.0291 68.6619 67.4868C68.3708 67.2325 68.0927 66.9647 67.8142 66.6964L67.8141 66.6964C67.7164 66.6023 67.6186 66.5081 67.5203 66.4145C66.8256 65.7534 66.4559 65.7092 65.6839 66.2492C65.2071 66.5833 64.735 66.9237 64.263 67.264L64.2628 67.2642L64.2627 67.2643C63.6408 67.7126 63.0192 68.1608 62.3874 68.5943C60.8407 69.655 59.1367 70.4293 57.4314 71.1958C54.9463 72.3124 52.5594 73.6008 50.2486 75.0466C48.8251 75.9368 47.2286 76.4938 45.5849 76.8438C44.8836 76.9933 44.1777 77.121 43.4717 77.2487C42.4875 77.4267 41.5031 77.6048 40.5307 77.842C40.0562 77.9565 39.5725 77.9292 39.098 77.842C37.5343 77.5557 35.9758 77.5726 34.4095 77.8381C33.6494 77.9665 32.8778 77.9397 32.1095 77.9131C31.9821 77.9087 31.8548 77.9043 31.7277 77.9006C29.6152 77.8388 27.5937 78.2934 25.551 78.7529L25.2264 78.8258C24.5509 78.977 23.8855 79.1643 23.2206 79.3515L23.2205 79.3516C22.3166 79.6061 21.4134 79.8604 20.4867 80.0231C19.9768 80.1129 19.4993 80.3002 19.0226 80.4872C18.85 80.5549 18.6775 80.6225 18.5036 80.6855C18.0173 80.8625 17.9137 81.3206 18.2205 81.7475C18.6272 82.313 18.9557 82.9225 19.2839 83.5316C19.4074 83.7606 19.5308 83.9896 19.6583 84.2162C19.9087 84.6613 20.2364 85.0582 20.6978 85.2677C21.4315 85.6016 21.8966 86.1912 22.3674 86.7879L22.4083 86.8398L22.4291 86.8656C22.5189 86.9767 22.6156 87.0961 22.5171 87.2458C22.4017 87.4215 22.2117 87.4046 22.0426 87.3603C20.2587 86.8944 18.5088 86.3869 17.2125 84.9332C16.3264 83.9403 15.1035 83.5173 13.8439 83.2063C13.3484 83.084 12.9041 82.8419 12.4833 82.5829C12.1521 82.3793 12 82.1612 12 81.8959C12 81.7118 12.0732 81.5051 12.2107 81.2646C13.0496 79.798 14.4154 79.0328 15.9935 78.7295C17.6713 78.4081 19.3058 77.9695 20.8983 77.3878C23.1056 76.5809 25.3077 75.7481 27.4638 74.8189C28.1223 74.535 28.786 74.2644 29.4497 73.9939L29.4498 73.9938C30.271 73.659 31.0922 73.3242 31.9033 72.9644C32.3818 72.7523 32.9192 72.7184 33.4448 72.7015C34.8001 72.6573 36.158 72.6768 37.4963 72.8811C38.6104 73.0516 39.7154 73.3158 40.8033 73.6138C41.5059 73.8064 42.0918 73.5253 42.5885 73.2038C45.5102 71.3103 48.4004 69.3687 51.1779 67.2643C52.5293 66.2401 53.9763 65.3474 55.4312 64.4754C57.2755 63.3693 58.9336 62.0575 60.2797 60.3761C60.3846 60.2433 60.4816 60.0794 60.5104 59.918C60.7909 58.3615 61.7805 57.4271 63.1148 56.6489C64.3333 55.9379 65.515 55.1661 66.697 54.3943L66.6971 54.3942C67.4644 53.8931 68.2318 53.392 69.0093 52.9074C70.0592 52.2528 71.1497 51.6594 72.2403 51.0724C73.0044 50.6612 73.513 50.0613 73.901 49.2987C73.9647 49.1736 74.026 49.047 74.0875 48.9203C74.2613 48.5619 74.436 48.2017 74.6665 47.8671C75.0059 47.3739 74.7058 46.8586 74.0792 46.826C73.5795 46.7998 73.0786 46.8056 72.5609 46.8116C72.3332 46.8142 72.1022 46.8169 71.8667 46.8169L71.8759 46.8208C70.7753 46.6903 69.6823 46.8544 68.5811 47.0197C67.728 47.1478 66.87 47.2766 65.9998 47.2698C65.6119 47.2672 65.2241 47.2689 64.836 47.2706H64.836H64.8359C64.2443 47.2732 63.6521 47.2759 63.0585 47.2633C62.5706 47.253 62.0824 47.2334 61.5941 47.2138C59.5586 47.1322 57.5225 47.0505 55.5086 47.6394C54.3014 47.9921 53.0522 47.9452 51.8306 47.5249C51.2766 47.3336 50.699 47.3155 50.1205 47.2974C49.7149 47.2846 49.3089 47.2719 48.9103 47.1995C48.7984 47.1792 48.6844 47.1678 48.5707 47.1565C48.4006 47.1396 48.2311 47.1227 48.0701 47.0759C47.4881 46.9067 47.2745 46.364 47.6756 45.9177C48.154 45.3867 48.0819 44.9741 47.7018 44.4263C47.2102 43.7196 47.4868 43.1574 48.1632 42.6369C49.118 41.9025 50.2217 41.6501 51.3329 41.3961C51.5076 41.3562 51.6824 41.3162 51.8568 41.2743C52.4178 41.139 52.798 41.4083 53.0522 41.8534C53.4599 42.5679 53.8518 43.2928 54.2083 44.0332C54.8899 45.4531 55.1966 45.6326 56.7485 45.267C58.1497 44.9364 59.526 44.5213 60.8892 44.0515C62.2026 43.5986 63.5395 43.2082 64.8791 42.8373C65.448 42.6798 66.068 42.685 66.6303 42.8698C69.0879 43.678 71.5482 43.4047 74.0098 42.9362C75.3362 42.6837 76.6588 42.4065 77.9722 42.0916C78.6024 41.9407 79.1892 41.6718 79.7761 41.4027C80.1767 41.219 80.5774 41.0353 80.9921 40.8891C82.6135 40.3165 84.1392 40.202 85.6925 41.3107C86.6869 42.0208 87.5988 42.8201 88.5098 43.6186C89.215 44.2368 89.9197 44.8544 90.6615 45.4296C90.7347 45.4863 90.8088 45.5496 90.8843 45.614L90.8844 45.6141C91.2386 45.9163 91.6226 46.244 92.085 46.0413C92.5875 45.8215 92.4955 45.2972 92.4184 44.8581C92.4043 44.7772 92.3906 44.6993 92.3812 44.6267C92.1046 42.482 93.186 41.0661 94.7536 39.8154C95.4673 39.2445 96.2239 39.0436 97.0924 39.0076L97.0968 39H12V81.8959V95H54.1259C54.1216 94.9832 54.1173 94.9664 54.113 94.9496Z" fill="url(#paint2_linear_2665_6275)"/>
<g filter="url(#filter0_d_2665_6275)">
<path d="M71.8667 46.8169C72.6374 46.8169 73.3596 46.7883 74.0792 46.826C74.7058 46.8586 75.0059 47.3739 74.6665 47.8671C74.3545 48.32 74.1448 48.8197 73.901 49.2987C73.513 50.0613 73.0044 50.6612 72.2403 51.0724C71.1497 51.6594 70.0592 52.2528 69.0093 52.9074C67.034 54.1385 65.1242 55.4763 63.1148 56.6489C61.7805 57.4271 60.7909 58.3615 60.5104 59.918C60.4816 60.0794 60.3846 60.2433 60.2797 60.3761C58.9336 62.0575 57.2755 63.3693 55.4312 64.4754C53.9763 65.3474 52.5293 66.2401 51.1779 67.2643C48.4004 69.3687 45.5102 71.3103 42.5885 73.2038C42.0918 73.5253 41.5059 73.8064 40.8033 73.6138C39.7154 73.3158 38.6104 73.0516 37.4963 72.8811C36.158 72.6768 34.8001 72.6573 33.4448 72.7015C32.9192 72.7184 32.3818 72.7523 31.9033 72.9644C30.4366 73.6151 28.9371 74.1838 27.4638 74.8189C25.3077 75.7481 23.1056 76.5809 20.8983 77.3878C19.3058 77.9695 17.6713 78.4081 15.9935 78.7295C14.4154 79.0328 13.0496 79.798 12.2107 81.2646C11.8751 81.8516 11.9223 82.2381 12.4833 82.5829C12.9041 82.8419 13.3484 83.084 13.8439 83.2063C15.1035 83.5173 16.3264 83.9403 17.2125 84.9332C18.5088 86.3869 20.2587 86.8944 22.0426 87.3603C22.2117 87.4046 22.4017 87.4215 22.5171 87.2458C22.6233 87.0844 22.5027 86.9582 22.4083 86.8398C21.9233 86.2255 21.4528 85.6113 20.6978 85.2677C20.2364 85.0582 19.9087 84.6613 19.6583 84.2162C19.1917 83.3872 18.7801 82.5257 18.2205 81.7475C17.9137 81.3206 18.0173 80.8625 18.5036 80.6855C19.1576 80.4487 19.792 80.1454 20.4867 80.0231C22.095 79.7407 23.6325 79.1824 25.2264 78.8258C27.38 78.343 29.5034 77.8355 31.7277 77.9005C32.6216 77.9266 33.5234 77.9877 34.4095 77.8381C35.9758 77.5726 37.5343 77.5557 39.098 77.842C39.5725 77.9292 40.0562 77.9565 40.5307 77.842C42.2006 77.4347 43.9058 77.2017 45.5849 76.8438C47.2286 76.4938 48.8251 75.9368 50.2486 75.0466C52.5594 73.6008 54.9463 72.3124 57.4314 71.1958C59.1367 70.4293 60.8407 69.655 62.3874 68.5943C63.4989 67.8317 64.5789 67.0236 65.6839 66.2492C66.4559 65.7092 66.8256 65.7534 67.5203 66.4145C67.8991 66.775 68.2687 67.1433 68.6619 67.4868C69.8088 68.4889 70.9675 69.4767 72.1157 70.4761C72.3609 70.6896 72.6282 70.9095 72.5535 71.2934C72.4762 71.689 72.1302 71.7281 71.8208 71.8426C71.1694 72.082 70.5153 72.3228 69.8927 72.6247C68.0367 73.5227 66.2252 74.5156 64.3404 75.3485C62.8107 76.024 61.3335 76.8191 59.7226 77.3227C58.3726 77.7431 57.092 78.4146 55.6868 78.6254C54.1362 78.8571 52.5646 78.9612 50.9996 79.0835C49.4071 79.2071 48.8592 79.7628 49.1908 81.2946C49.6312 83.3299 49.6574 85.3783 49.664 87.4371C49.664 87.7846 49.7098 88.1164 49.8357 88.4535C50.1686 89.3476 50.6378 90.1609 51.1202 90.9808C51.9171 92.3368 52.9067 93.5406 53.9003 94.747C54.0274 94.9006 54.1729 95.0528 54.3971 94.9865C54.633 94.9175 54.6199 94.6963 54.654 94.505C54.7864 93.7554 54.8191 93.0162 54.6998 92.2496C54.5163 91.0719 54.4757 89.8863 54.6514 88.6878C54.7772 87.8288 55.0511 86.9986 55.1547 86.15C55.5046 83.2857 57.147 81.8503 59.5535 81.0916C60.922 80.6608 62.2891 80.2248 63.6654 79.8149C65.7796 79.185 67.9358 78.805 70.1064 78.4784C70.8797 78.3612 71.6832 78.4901 72.4539 78.304C73.9102 77.9526 75.3926 77.937 76.8777 77.924C78.3195 77.9123 79.7548 78.0984 81.1979 78.0307C82.5532 77.9682 83.881 77.9344 84.9584 76.8829C85.4565 76.3961 85.6951 75.9446 85.4985 75.2848C85.2232 74.3556 84.9912 73.4251 84.5901 72.5206C83.5782 70.2393 82.333 68.1323 80.5596 66.3572C78.9762 64.7735 77.3967 63.1858 75.5669 61.8701C74.9588 61.4328 75.023 60.8992 75.6875 60.5713C76.3141 60.2628 77.014 60.3474 77.672 60.2121C79.0666 59.9258 80.5019 59.8048 81.713 58.8769C82.4208 58.3355 83.2269 57.8162 84.2441 58.0921C84.459 58.1507 84.6622 58.0101 84.8536 57.8969C86.7791 56.753 88.812 55.7952 90.6523 54.5042C91.9867 53.5685 93.3761 52.72 94.4758 51.4772C95.0223 50.859 95.818 50.548 96.6647 50.4348C97.7343 50.2903 98.7973 50.2916 99.859 50.5102C100.187 50.5779 100.537 50.6196 100.758 50.302C101.155 49.7307 101.779 49.5902 102.384 49.4223C102.93 49.27 103.481 49.1204 104.04 49.0332C105.908 48.7443 107.763 48.2198 109.679 48.7482C110.355 48.9343 110.911 49.3845 111.62 49.5069C112.63 49.6813 113.622 49.9454 114.626 50.1511C115.416 50.3124 116.178 49.8856 116.629 49.257C117.139 48.5452 116.973 47.7513 116.99 47.0082C117.009 46.1454 116.066 45.3763 115.193 45.3828C114.272 45.3893 113.362 45.2878 112.453 45.1746C111.242 45.0236 110.095 45.0652 109.19 46.053C108.944 46.3211 108.577 46.3549 108.229 46.4161C106.352 46.7479 104.482 46.3822 102.609 46.3705C101.9 46.3653 101.657 45.7862 102.096 45.2461C102.377 44.9 102.507 44.5356 102.49 44.11C102.466 43.5556 102.702 43.2329 103.249 43.0559C103.917 42.8399 104.487 42.5223 104.738 41.7454C104.9 41.2444 104.808 41.1246 104.343 41.0869C103.499 41.0192 102.731 40.6926 102.019 40.28C100.492 39.3938 98.8733 38.9357 97.0999 39.0073C96.2282 39.0424 95.4693 39.2428 94.7536 39.8154C93.186 41.0661 92.1046 42.482 92.3812 44.6267C92.4415 45.0939 92.68 45.781 92.085 46.0413C91.524 46.2872 91.0783 45.7524 90.6615 45.4296C88.9615 44.1113 87.4567 42.5705 85.6925 41.3107C84.1392 40.202 82.6135 40.3165 80.9921 40.8891C79.9697 41.2496 79.0326 41.8378 77.9722 42.0916C76.6588 42.4065 75.3362 42.6837 74.0098 42.9362C71.5482 43.4047 69.0879 43.678 66.6303 42.8698C66.068 42.685 65.448 42.6798 64.8791 42.8373C63.5395 43.2082 62.2026 43.5986 60.8892 44.0515C59.526 44.5213 58.1497 44.9364 56.7485 45.267C55.1966 45.6326 54.8899 45.4531 54.2083 44.0332C53.8518 43.2928 53.4599 42.5679 53.0522 41.8534C52.798 41.4083 52.4178 41.139 51.8568 41.2743C50.5723 41.5827 49.2681 41.787 48.1632 42.6369C47.4868 43.1574 47.2102 43.7196 47.7018 44.4263C48.0819 44.9741 48.154 45.3867 47.6756 45.9177C47.2745 46.364 47.4881 46.9067 48.0701 47.0759C48.3388 47.154 48.6311 47.1488 48.9103 47.1995C49.8776 47.3752 50.8882 47.1995 51.8306 47.5249C53.0522 47.9452 54.3014 47.9921 55.5086 47.6394C58.0056 46.9093 60.5366 47.2099 63.0585 47.2633C64.0415 47.2841 65.0207 47.2633 65.9998 47.2698C67.9934 47.2854 69.9229 46.5892 71.8759 46.8208L71.8667 46.8169Z" fill="white"/>
</g>
</g>
<path d="M57.3444 5.20603L16.993 28.5342C12.6654 31.0361 10.0001 35.6556 10.0001 40.6544V87.3456C10.0001 92.3444 12.6654 96.9639 16.993 99.4658L57.3444 122.794C61.6796 125.3 67.0233 125.3 71.3584 122.794L111.71 99.4658C116.037 96.9639 118.703 92.3444 118.703 87.3456V40.6544C118.703 35.6556 116.037 31.0361 111.71 28.5342L71.3585 5.20603C67.0233 2.69975 61.6796 2.69975 57.3444 5.20603Z" stroke="url(#paint3_linear_2665_6275)" stroke-width="2"/>
<defs>
<filter id="filter0_d_2665_6275" x="12" y="39" width="105.003" height="59.0024" filterUnits="userSpaceOnUse" color-interpolation-filters="sRGB">
<feFlood flood-opacity="0" result="BackgroundImageFix"/>
<feColorMatrix in="SourceAlpha" type="matrix" values="0 0 0 0 0 0 0 0 0 0 0 0 0 0 0 0 0 0 127 0" result="hardAlpha"/>
<feOffset dy="3"/>
<feComposite in2="hardAlpha" operator="out"/>
<feColorMatrix type="matrix" values="0 0 0 0 0 0 0 0 0 0 0 0 0 0 0 0 0 0 0.3 0"/>
<feBlend mode="normal" in2="BackgroundImageFix" result="effect1_dropShadow_2665_6275"/>
<feBlend mode="normal" in="SourceGraphic" in2="effect1_dropShadow_2665_6275" result="shape"/>
</filter>
<linearGradient id="paint0_linear_2665_6275" x1="64.3514" y1="0" x2="64.3514" y2="128" gradientUnits="userSpaceOnUse">
<stop stop-color="white" stop-opacity="0.3"/>
<stop offset="1" stop-color="white" stop-opacity="0"/>
</linearGradient>
<linearGradient id="paint1_linear_2665_6275" x1="64" y1="0" x2="64" y2="128" gradientUnits="userSpaceOnUse">
<stop stop-color="#362167"/>
<stop offset="1" stop-color="#8A2C6A"/>
</linearGradient>
<linearGradient id="paint2_linear_2665_6275" x1="95.4912" y1="63.9455" x2="12.0115" y2="65.2112" gradientUnits="userSpaceOnUse">
<stop stop-color="white"/>
<stop offset="1" stop-color="white" stop-opacity="0"/>
</linearGradient>
<linearGradient id="paint3_linear_2665_6275" x1="64.3514" y1="0" x2="64.3514" y2="128" gradientUnits="userSpaceOnUse">
<stop stop-color="white" stop-opacity="0.3"/>
<stop offset="1" stop-color="white" stop-opacity="0"/>
</linearGradient>
</defs>
</svg>
