<svg width="12" height="12" viewBox="0 0 12 12" fill="none" xmlns="http://www.w3.org/2000/svg">
<path fill-rule="evenodd" clip-rule="evenodd" d="M11.9639 3.52627C11.9347 2.8876 11.8333 2.45144 11.685 2.06984C11.5344 1.66948 11.2982 1.30683 10.9929 1.00709C10.6933 0.701846 10.3305 0.465549 9.9302 0.314854C9.54852 0.166625 9.11247 0.0652764 8.47375 0.0362566C7.83391 0.00696005 7.62946 0 6 0C4.37055 0 4.16612 0.00695996 3.52625 0.036072C2.88758 0.0652763 2.45151 0.166717 2.06983 0.315032C1.66947 0.465641 1.30682 0.701846 1.00709 1.00709C0.701842 1.30674 0.465546 1.66938 0.314853 2.06975C0.166624 2.45144 0.065276 2.8876 0.0362564 3.52618C0.00696001 4.16614 0 4.37048 0 5.99997C0 7.6295 0.00696001 7.83395 0.0362564 8.4738C0.0653683 9.11239 0.166808 9.54858 0.315123 9.93026C0.465731 10.3305 0.701934 10.6933 1.00717 10.9929C1.30682 11.2981 1.66956 11.5344 2.06992 11.685C2.45151 11.8334 2.88767 11.9348 3.52634 11.9639C4.1663 11.9931 4.37064 12 6.00013 12C7.62959 12 7.83398 11.9931 8.47388 11.9639C9.11254 11.9348 9.54859 11.8334 9.93027 11.685C10.7362 11.3733 11.3733 10.7362 11.685 9.93026C11.8334 9.54858 11.9347 9.11239 11.9639 8.4738C11.9931 7.83389 12 7.6295 12 6.00003C12 4.37048 11.9931 4.16614 11.9639 3.52627ZM10.8839 8.42463C10.8573 9.00971 10.7595 9.32739 10.6773 9.53876C10.4755 10.0621 10.062 10.4757 9.53864 10.6775C9.3272 10.7597 9.00952 10.8574 8.42452 10.884C7.79199 10.913 7.60217 10.919 6 10.919C4.39775 10.919 4.20805 10.913 3.57542 10.884C2.99048 10.8574 2.6728 10.7597 2.46131 10.6775C2.20075 10.5813 1.965 10.4279 1.77145 10.2286C1.57215 10.0351 1.4188 9.79943 1.32257 9.53876C1.24045 9.32739 1.14267 9.00971 1.11603 8.42463C1.08719 7.79204 1.08105 7.60222 1.08105 6.00016C1.08105 4.39795 1.08719 4.20826 1.11603 3.57553C1.14276 2.9905 1.24045 2.67281 1.32257 2.46141C1.4188 2.20076 1.57224 1.96501 1.77145 1.77146C1.965 1.57216 2.20075 1.41881 2.4614 1.32267C2.6728 1.24046 2.99048 1.14277 3.57551 1.11604C4.20814 1.0872 4.39792 1.08106 6 1.08106C7.60204 1.08106 7.79179 1.0872 8.42452 1.11613C9.00952 1.14277 9.32714 1.24055 9.53864 1.32267C9.79918 1.4189 10.0349 1.57225 10.2285 1.77146C10.4278 1.96501 10.5811 2.20076 10.6773 2.46141C10.7595 2.67281 10.8573 2.9905 10.8839 3.57553C10.9128 4.20816 10.9189 4.39795 10.9189 6.00003C10.9189 7.60222 10.9128 7.7919 10.8839 8.42463ZM5.99974 2.91888C4.29811 2.91888 2.91868 4.29841 2.91868 6.00003C2.91868 7.70161 4.29811 9.08109 5.99974 9.08109C7.70143 9.08109 9.08084 7.70161 9.08084 6.00003C9.08084 4.29841 7.70143 2.91888 5.99974 2.91888ZM5.99974 7.99998C4.89524 7.99991 3.99974 7.10454 3.99983 5.9999C3.99983 4.8954 4.89524 3.99994 5.9998 3.99994C7.10437 4.00004 7.9998 4.8954 7.9998 5.9999C7.9998 7.10454 7.1043 7.99998 5.99974 7.99998ZM9.2029 3.51717C9.60053 3.51717 9.92289 3.19481 9.92289 2.79719C9.92289 2.39949 9.60053 2.07713 9.2029 2.07713C8.80521 2.07713 8.48285 2.39949 8.48285 2.79719C8.48285 3.19481 8.80521 3.51717 9.2029 3.51717Z" fill="white"/>
</svg>
