<svg width="11" height="12" viewBox="0 0 11 12" fill="none" xmlns="http://www.w3.org/2000/svg">
<path fill-rule="evenodd" clip-rule="evenodd" d="M1.24489 10.598H8.1251L7.79649 9.49549C7.84524 9.53947 10.6154 12 10.6154 12V1.2375C10.5826 0.568502 10.0267 0 9.33765 0L1.24731 0.00149835C0.558752 0.00149835 0 0.570997 0 1.24V9.35998C0 10.0655 0.55779 10.598 1.24489 10.598ZM6.33452 2.84149L6.31854 2.84749L6.32437 2.84149H6.33452ZM2.6524 3.47599C3.53685 2.809 4.35666 2.84099 4.35666 2.84099L4.42278 2.9085C3.34047 3.176 2.84975 3.67699 2.84975 3.67699C2.85317 3.67625 2.86655 3.66945 2.88935 3.65788C3.20049 3.49998 5.26603 2.4517 7.73329 3.70999C7.73329 3.70999 7.24161 3.24149 6.2259 2.9415L6.31568 2.84999C6.45608 2.8505 7.19917 2.8775 7.99432 3.47999C7.99432 3.47999 8.8841 5.05499 8.8841 6.99002C8.87879 6.98331 8.8574 7.00621 8.81793 7.04844C8.63905 7.2399 8.08918 7.82842 6.98735 7.85301C6.98735 7.85301 6.75961 7.58596 6.59747 7.353C7.38399 7.119 7.67831 6.65102 7.67831 6.65102C6.14724 7.65001 4.80537 7.49401 3.20005 6.81898C3.1851 6.81898 3.17834 6.81197 3.17062 6.80399V6.80097L3.1693 6.7997C3.1621 6.79263 3.15529 6.78599 3.14119 6.78599H3.11224C3.0138 6.71899 2.94818 6.686 2.94818 6.686C2.94818 6.686 3.24203 7.15399 3.99717 7.38798C3.79886 7.62252 3.60248 7.88901 3.60248 7.88901C2.25818 7.85597 1.76795 6.98597 1.76795 6.98597C1.76795 5.04799 2.6524 3.47599 2.6524 3.47599ZM6.42168 6.38543C6.76474 6.38543 7.04414 6.08546 7.04414 5.71547C7.04414 5.34795 6.7662 5.04792 6.42168 5.04792V5.04944C6.08008 5.04944 5.80022 5.34844 5.79923 5.71843C5.79923 6.08546 6.07862 6.38543 6.42168 6.38543ZM4.81581 5.71547C4.81581 6.08546 4.53647 6.38543 4.19341 6.38543C3.85032 6.38543 3.57094 6.08546 3.57094 5.71843C3.57094 5.34844 3.85032 5.04944 4.19341 5.04944L4.19534 5.04792C4.5384 5.04792 4.81581 5.34795 4.81581 5.71547Z" fill="white"/>
</svg>
