<svg width="15" height="12" viewBox="0 0 15 12" fill="none" xmlns="http://www.w3.org/2000/svg">
<path fill-rule="evenodd" clip-rule="evenodd" d="M14.25 0.900002C14.6896 1.41817 14.8448 2.59091 14.8448 2.59091C14.8448 2.59091 15 3.98183 15 5.37269V6.65457C15 8.01822 14.8448 9.40914 14.8448 9.40914C14.8448 9.40914 14.6897 10.5818 14.25 11.1C13.7089 11.7225 13.0976 11.7776 12.7944 11.805C12.7788 11.8064 12.7639 11.8078 12.75 11.8091C10.6551 12 7.5 12 7.5 12C7.5 12 3.59481 11.9727 2.40518 11.8364C2.34197 11.8211 2.26412 11.8095 2.17561 11.7964C1.79334 11.7398 1.21199 11.6537 0.75 11.1001C0.310372 10.5819 0.155182 9.40914 0.155182 9.40914C0.155182 9.40914 0 8.04548 0 6.65457V5.37277C0 3.98183 0.155182 2.59091 0.155182 2.59091C0.155182 2.59091 0.284474 1.4182 0.75 0.900002C1.29109 0.277538 1.90235 0.222358 2.20562 0.194982C2.22125 0.193575 2.23606 0.192234 2.25 0.1909C4.34481 0.0272818 7.5 0 7.5 0C7.5 0 10.6551 0.0272818 12.75 0.1909C12.7716 0.192973 12.7953 0.194887 12.8208 0.196954C13.1322 0.222111 13.7242 0.269947 14.25 0.900002ZM5.68964 9.16365V3.24542L10.6034 6.27271L5.68964 9.16365Z" fill="white"/>
</svg>
